<svg width="97" height="96" viewBox="0 0 97 96" fill="none" xmlns="http://www.w3.org/2000/svg">
<path d="M40.3271 5.18919C45.5163 2.20541 51.6136 2.20541 56.673 5.18919L81.5811 19.4595C86.6406 22.4432 89.7541 27.7622 89.7541 33.6V62.4C89.7541 68.2378 86.6406 73.5568 81.5811 76.5405L56.673 90.8108C54.1925 92.2583 51.372 93.021 48.5 93.021C45.6281 93.021 42.8076 92.2583 40.3271 90.8108L15.419 76.5405C12.9081 75.1066 10.8264 73.0274 9.38937 70.5183C7.95235 68.0092 7.21233 65.1615 7.24599 62.2703V33.6C7.24599 27.7622 10.3595 22.4432 15.419 19.4595L40.3271 5.18919Z" fill="#EF4723"/>
<path d="M17.3649 63.6973V32.6919H23.9811L34.3595 56.8216H34.4892L44.8676 32.6919H51.3541V63.827H46.1649L46.5541 40.0865L36.3054 63.6973H32.4135L22.2946 40.4757H22.1649L22.5541 63.827H17.3649V63.6973ZM56.2838 63.6973V32.6919H70.0352C71.7217 32.6919 73.1487 32.9514 74.446 33.2108C75.7433 33.6 76.7811 34.1189 77.5595 34.8973C78.4676 35.5459 78.9865 36.4541 79.3757 37.4919C80.0876 39.2191 80.2241 41.1297 79.7649 42.9405L78.8568 44.7568C78.4676 45.4054 77.9487 45.7946 77.3 46.3135L75.2244 47.2216V47.4811C76.1325 47.6108 76.9108 47.8703 77.819 48.3892L79.6352 49.8162L80.9325 52.0216C81.5123 54.0718 81.4214 56.2538 80.673 58.2487C80.1583 59.3676 79.4213 60.3702 78.5069 61.1954C77.5925 62.0205 76.5198 62.6511 75.3541 63.0486C74.0568 63.4378 72.5 63.6973 70.9433 63.6973H56.2838ZM70.5541 49.6865H61.473V59.6757H70.5541C71.4622 59.6757 72.2406 59.5459 73.019 59.2865L74.8352 58.2487L75.873 56.6919C76.3493 55.3937 76.3493 53.9685 75.873 52.6703L74.7054 51.1135C74.3163 50.7243 73.6676 50.4649 73.019 50.2054C72.1823 49.9298 71.305 49.7982 70.4244 49.8162L70.5541 49.6865ZM69.646 36.8432H61.3433V45.6649H69.646C70.4244 45.6649 71.2027 45.5351 71.8514 45.2757C72.6298 45.146 73.1487 44.7568 73.6676 44.3676C74.0568 43.8487 74.446 43.4595 74.5757 42.8108C75.0301 41.6875 75.0301 40.4315 74.5757 39.3081C74.5757 38.7892 74.1865 38.4 73.6676 38.0108C73.2784 37.6216 72.7595 37.3622 71.9811 37.2324C71.3325 36.973 70.6838 36.8432 69.646 36.8432Z" fill="white"/>
</svg>
