<svg width="26" height="25" viewBox="0 0 26 25" fill="none" xmlns="http://www.w3.org/2000/svg">
<path id="Vector" d="M6.09598 24.9995H0.912946V8.3086H6.09598V24.9995ZM3.50167 6.03181C1.84431 6.03181 0.5 4.65904 0.5 3.00168C0.5 2.20558 0.816247 1.44209 1.37917 0.87917C1.94209 0.316247 2.70558 0 3.50167 0C4.29777 0 5.06125 0.316247 5.62418 0.87917C6.1871 1.44209 6.50335 2.20558 6.50335 3.00168C6.50335 4.65904 5.15848 6.03181 3.50167 6.03181ZM25.4944 24.9995H20.3225V16.8744C20.3225 14.9381 20.2835 12.4548 17.6278 12.4548C14.933 12.4548 14.5201 14.5586 14.5201 16.7349V24.9995H9.34263V8.3086H14.3136V10.5854H14.3862C15.0781 9.274 16.7684 7.89007 19.2902 7.89007C24.5357 7.89007 25.5 11.3443 25.5 15.8309V24.9995H25.4944Z" fill="#DF8BE6"/>
</svg>
