<svg width="48" height="49" viewBox="0 0 48 49" fill="none" xmlns="http://www.w3.org/2000/svg">
<g id="tabler-icon-circle-4-filled">
<path id="Vector" d="M24 4.83325C35.046 4.83325 44 13.7873 44 24.8333C44 35.8793 35.046 44.8333 24 44.8333C12.954 44.8333 4 35.8793 4 24.8333C4 13.7873 12.954 4.83325 24 4.83325ZM28 14.8333C27.5101 14.8333 27.0373 15.0132 26.6713 15.3387C26.3052 15.6642 26.0713 16.1127 26.014 16.5993L26 16.8333V22.8333H22V16.8333L21.986 16.5993C21.9282 16.1132 21.6941 15.6651 21.3281 15.3401C20.9621 15.015 20.4895 14.8355 20 14.8355C19.5105 14.8355 19.0379 15.015 18.6719 15.3401C18.3059 15.6651 18.0718 16.1132 18.014 16.5993L18 16.8333V22.8333L18.01 23.1333C18.0816 24.0856 18.4915 24.9809 19.1657 25.6573C19.8399 26.3337 20.7339 26.7466 21.686 26.8213L22 26.8333H26V32.8333L26.014 33.0673C26.0718 33.5534 26.3059 34.0014 26.6719 34.3264C27.0379 34.6515 27.5105 34.831 28 34.831C28.4895 34.831 28.9621 34.6515 29.3281 34.3264C29.6941 34.0014 29.9282 33.5534 29.986 33.0673L30 32.8333V16.8333L29.986 16.5993C29.9287 16.1127 29.6948 15.6642 29.3287 15.3387C28.9627 15.0132 28.4899 14.8333 28 14.8333Z" fill="#BA02C9"/>
</g>
</svg>
