<svg width="48" height="49" viewBox="0 0 48 49" fill="none" xmlns="http://www.w3.org/2000/svg">
<g id="tabler-icon-circle-3-filled">
<path id="Vector" d="M24 4.33325C35.046 4.33325 44 13.2873 44 24.3333C44 35.3793 35.046 44.3333 24 44.3333C12.954 44.3333 4 35.3793 4 24.3333C4 13.2873 12.954 4.33325 24 4.33325ZM26 14.3333H22L21.7 14.3433C20.6937 14.4189 19.7532 14.8722 19.067 15.6122C18.3808 16.3521 17.9997 17.3241 18 18.3333C17.9983 18.8248 18.1777 19.2998 18.5039 19.6675C18.8301 20.0352 19.2803 20.2699 19.7685 20.3268C20.2568 20.3837 20.7489 20.2587 21.1509 19.9759C21.5529 19.693 21.8367 19.272 21.948 18.7933L21.988 18.5673L22 18.3333H26V22.3333H22L21.734 22.3473C19.512 22.5873 19.426 25.8073 21.478 26.2773L21.734 26.3193L22 26.3333H26V30.3333H22L21.986 30.0993C21.9258 29.5931 21.6746 29.129 21.2837 28.8018C20.8928 28.4746 20.3917 28.309 19.8828 28.3389C19.3739 28.3688 18.8956 28.5918 18.5457 28.9625C18.1958 29.3332 18.0006 29.8235 18 30.3333C17.9997 31.3424 18.3808 32.3144 19.067 33.0543C19.7532 33.7943 20.6937 34.2476 21.7 34.3233L22 34.3333H26L26.3 34.3233C27.2523 34.2517 28.1477 33.8417 28.8241 33.1675C29.5005 32.4933 29.9133 31.5994 29.988 30.6473L30 30.3333V26.3333L29.99 26.0333C29.9551 25.5722 29.84 25.1208 29.65 24.6993L29.5 24.3953L29.462 24.3313L29.502 24.2713C29.7723 23.7808 29.9372 23.2392 29.986 22.6813L30 22.3333V18.3333L29.99 18.0333C29.9184 17.0809 29.5085 16.1856 28.8343 15.5092C28.1601 14.8328 27.2661 14.4199 26.314 14.3453L26 14.3333Z" fill="#BA02C9"/>
</g>
</svg>
