<svg width="41" height="40" viewBox="0 0 41 40" fill="none" xmlns="http://www.w3.org/2000/svg">
<path d="M20.5 -6.10352e-05L21.148 0.00993919C26.3935 0.179981 31.3619 2.40503 34.9817 6.20516C38.6014 10.0053 40.5824 15.076 40.4974 20.3235C40.4124 25.571 38.2681 30.5748 34.5271 34.2557C30.7861 37.9365 25.7482 39.9994 20.5 39.9994C15.2518 39.9994 10.2139 37.9365 6.47293 34.2557C2.73195 30.5748 0.587691 25.571 0.502659 20.3235C0.417627 15.076 2.39863 10.0053 6.01839 6.20516C9.63815 2.40503 14.6066 0.179981 19.852 0.00993919L20.5 -6.10352e-05ZM21.726 10.4199C21.3241 10.1091 20.8188 9.96295 20.313 10.0111C19.8071 10.0593 19.3386 10.2983 19.0025 10.6794C18.6665 11.0605 18.4881 11.5553 18.5036 12.0632C18.5191 12.5711 18.7273 13.054 19.086 13.4139L23.668 17.9999H12.5L12.266 18.0139C11.7598 18.0741 11.2957 18.3254 10.9686 18.7163C10.6414 19.1072 10.4758 19.6083 10.5057 20.1171C10.5356 20.626 10.7586 21.1043 11.1293 21.4542C11.5 21.8042 11.9903 21.9994 12.5 21.9999H23.668L19.086 26.5859L18.92 26.7739C18.6092 27.1759 18.463 27.6811 18.5112 28.187C18.5594 28.6928 18.7983 29.1614 19.1795 29.4974C19.5606 29.8335 20.0554 30.0119 20.5633 29.9964C21.0712 29.9809 21.5541 29.7726 21.914 29.4139L29.914 21.4139L30.06 21.2499L30.188 21.0719L30.312 20.8459L30.4 20.6259L30.46 20.4019L30.494 20.1499L30.5 19.9999L30.486 19.7639L30.428 19.4679L30.358 19.2579L30.25 19.0319L30.108 18.8099C30.049 18.7306 29.9841 18.6557 29.914 18.5859L21.914 10.5859L21.726 10.4199Z" fill="#6A00A6" fill-opacity="0.75"/>
</svg>
