<svg width="24" height="24" viewBox="0 0 24 24" fill="none" xmlns="http://www.w3.org/2000/svg">
<path d="M18 8H10C8.89543 8 8 8.89543 8 10V18C8 19.1046 8.89543 20 10 20H18C19.1046 20 20 19.1046 20 18V10C20 8.89543 19.1046 8 18 8Z" stroke="url(#paint0_linear_1012_579)" stroke-width="1.5" stroke-linecap="round" stroke-linejoin="round"/>
<path d="M16 8V6C16 5.46957 15.7893 4.96086 15.4142 4.58579C15.0391 4.21071 14.5304 4 14 4H6C5.46957 4 4.96086 4.21071 4.58579 4.58579C4.21071 4.96086 4 5.46957 4 6V14C4 14.5304 4.21071 15.0391 4.58579 15.4142C4.96086 15.7893 5.46957 16 6 16H8" stroke="url(#paint1_linear_1012_579)" stroke-width="1.5" stroke-linecap="round" stroke-linejoin="round"/>
<defs>
<linearGradient id="paint0_linear_1012_579" x1="8" y1="14" x2="20" y2="14" gradientUnits="userSpaceOnUse">
<stop stop-color="#8246CE"/>
<stop offset="0.505102" stop-color="#BA02C9"/>
<stop offset="1" stop-color="#EB45AA"/>
</linearGradient>
<linearGradient id="paint1_linear_1012_579" x1="4" y1="10" x2="16" y2="10" gradientUnits="userSpaceOnUse">
<stop stop-color="#8246CE"/>
<stop offset="0.505102" stop-color="#BA02C9"/>
<stop offset="1" stop-color="#EB45AA"/>
</linearGradient>
</defs>
</svg>
