<svg width="64" height="65" viewBox="0 0 64 65" fill="none" xmlns="http://www.w3.org/2000/svg">
<path id="Vector" d="M48 4.78765C52.8264 7.57439 56.8414 11.5733 59.6474 16.3886C62.4534 21.2039 63.9531 26.6685 63.9981 32.2415C64.0432 37.8146 62.6319 43.3027 59.904 48.1627C57.1762 53.0226 53.2264 57.0859 48.4456 59.9503C43.6648 62.8146 38.2188 64.3807 32.6467 64.4934C27.0746 64.6062 21.5698 63.2618 16.677 60.5932C11.7842 57.9247 7.67318 54.0245 4.75093 49.2789C1.82868 44.5333 0.19651 39.1067 0.0160004 33.5364L0 32.4996L0.0160004 31.4628C0.19521 25.9364 1.80335 20.5507 4.68365 15.8308C7.56394 11.1109 11.6181 7.2179 16.4508 4.53128C21.2836 1.84466 26.7301 0.456126 32.2592 0.501057C37.7884 0.545988 43.2115 2.02285 48 4.78765ZM43.8624 23.8373C43.3114 23.2863 42.5783 22.9553 41.8006 22.9064C41.0229 22.8575 40.2541 23.094 39.6384 23.5716L39.3376 23.8373L28.8 34.3716L24.6624 30.2372L24.3616 29.9716C23.7459 29.4944 22.9772 29.2581 22.1997 29.3072C21.4222 29.3562 20.6893 29.6872 20.1384 30.2381C19.5876 30.7889 19.2566 31.5218 19.2075 32.2993C19.1585 33.0768 19.3947 33.8455 19.872 34.4612L20.1376 34.762L26.5376 41.162L26.8384 41.4276C27.3996 41.8631 28.0897 42.0994 28.8 42.0994C29.5103 42.0994 30.2004 41.8631 30.7616 41.4276L31.0624 41.162L43.8624 28.362L44.128 28.0612C44.6056 27.4456 44.8421 26.6768 44.7932 25.8991C44.7443 25.1214 44.4134 24.3883 43.8624 23.8373Z" fill="#6BD79C"/>
</svg>
