<svg width="25" height="24" viewBox="0 0 25 24" fill="none" xmlns="http://www.w3.org/2000/svg">
<g clip-path="url(#clip0_1515_4058)">
<path d="M4.19995 7H20.2" stroke="#BA02CA" stroke-width="1.5" stroke-linecap="round" stroke-linejoin="round"/>
<path d="M10.2 11V17" stroke="#BA02CA" stroke-width="1.5" stroke-linecap="round" stroke-linejoin="round"/>
<path d="M14.2 11V17" stroke="#BA02CA" stroke-width="1.5" stroke-linecap="round" stroke-linejoin="round"/>
<path d="M5.19995 7L6.19995 19C6.19995 19.5304 6.41066 20.0391 6.78574 20.4142C7.16081 20.7893 7.66952 21 8.19995 21H16.2C16.7304 21 17.2391 20.7893 17.6142 20.4142C17.9892 20.0391 18.2 19.5304 18.2 19L19.2 7" stroke="#BA02CA" stroke-width="1.5" stroke-linecap="round" stroke-linejoin="round"/>
<path d="M9.19995 7V4C9.19995 3.73478 9.30531 3.48043 9.49284 3.29289C9.68038 3.10536 9.93473 3 10.2 3H14.2C14.4652 3 14.7195 3.10536 14.9071 3.29289C15.0946 3.48043 15.2 3.73478 15.2 4V7" stroke="#BA02CA" stroke-width="1.5" stroke-linecap="round" stroke-linejoin="round"/>
</g>
<defs>
<clipPath id="clip0_1515_4058">
<rect width="24" height="24" fill="white" transform="translate(0.199951)"/>
</clipPath>
</defs>
</svg>
