<svg width="20" height="20" viewBox="0 0 20 20" fill="none" xmlns="http://www.w3.org/2000/svg">
<path d="M11.6001 2.7998V5.9998C11.6001 6.21198 11.6844 6.41546 11.8344 6.56549C11.9844 6.71552 12.1879 6.79981 12.4001 6.79981H15.6001" stroke="#188A4C" stroke-width="1.6" stroke-linecap="round" stroke-linejoin="round"/>
<path d="M13.9999 17.1998H5.9999C5.57556 17.1998 5.16859 17.0312 4.86853 16.7312C4.56847 16.4311 4.3999 16.0242 4.3999 15.5998V4.3998C4.3999 3.97546 4.56847 3.56849 4.86853 3.26843C5.16859 2.96838 5.57556 2.7998 5.9999 2.7998H11.5999L15.5999 6.79981V15.5998C15.5999 16.0242 15.4313 16.4311 15.1313 16.7312C14.8312 17.0312 14.4242 17.1998 13.9999 17.1998Z" stroke="#188A4C" stroke-width="1.6" stroke-linecap="round" stroke-linejoin="round"/>
<path d="M7.6001 12.3998L9.2001 13.9998L12.4001 10.7998" stroke="#188A4C" stroke-width="1.6" stroke-linecap="round" stroke-linejoin="round"/>
</svg>
