<svg width="24" height="25" viewBox="0 0 24 25" fill="none" xmlns="http://www.w3.org/2000/svg">
<g clip-path="url(#clip0_893_3109)">
<path d="M4 13.5C5.78309 13.7119 7.44305 14.5175 8.71276 15.7872C9.98247 17.057 10.7881 18.7169 11 20.5C11.8839 19.9904 12.6233 19.2638 13.1482 18.3889C13.6732 17.514 13.9663 16.5197 14 15.5C15.6791 14.9093 17.1454 13.834 18.2133 12.41C19.2813 10.986 19.9031 9.27734 20 7.5C20 6.70435 19.6839 5.94129 19.1213 5.37868C18.5587 4.81607 17.7956 4.5 17 4.5C15.2227 4.59691 13.514 5.21867 12.09 6.28665C10.666 7.35464 9.59069 8.82089 9 10.5C7.98026 10.5337 6.98596 10.8268 6.11106 11.3518C5.23617 11.8767 4.50959 12.6161 4 13.5Z" stroke="#BA02CA" stroke-width="1.5" stroke-linecap="round" stroke-linejoin="round"/>
<path d="M6.99999 14.5C5.95922 15.0876 5.11765 15.9726 4.58315 17.0416C4.04865 18.1106 3.84559 19.3148 3.99999 20.5C5.18515 20.6544 6.38942 20.4513 7.45841 19.9168C8.52741 19.3823 9.41242 18.5408 9.99999 17.5" stroke="#BA02CA" stroke-width="1.5" stroke-linecap="round" stroke-linejoin="round"/>
<path d="M15 10.5C15.5523 10.5 16 10.0523 16 9.5C16 8.94772 15.5523 8.5 15 8.5C14.4477 8.5 14 8.94772 14 9.5C14 10.0523 14.4477 10.5 15 10.5Z" stroke="#BA02CA" stroke-width="1.5" stroke-linecap="round" stroke-linejoin="round"/>
</g>
<defs>
<clipPath id="clip0_893_3109">
<rect width="24" height="24" fill="white" transform="translate(0 0.5)"/>
</clipPath>
</defs>
</svg>
