<svg width="20" height="20" viewBox="0 0 20 20" fill="none" xmlns="http://www.w3.org/2000/svg">
<g clip-path="url(#clip0_1524_4132)">
<path d="M7.60002 9.20005C9.36734 9.20005 10.8 7.76736 10.8 6.00005C10.8 4.23274 9.36734 2.80005 7.60002 2.80005C5.83271 2.80005 4.40002 4.23274 4.40002 6.00005C4.40002 7.76736 5.83271 9.20005 7.60002 9.20005Z" stroke="#BA02CA" stroke-width="1.5" stroke-linecap="round" stroke-linejoin="round"/>
<path d="M2.80005 17.2V15.6C2.80005 14.7513 3.13719 13.9374 3.73731 13.3373C4.33742 12.7372 5.15136 12.4 6.00005 12.4H9.20005C10.0487 12.4 10.8627 12.7372 11.4628 13.3373C12.0629 13.9374 12.4 14.7513 12.4 15.6V17.2" stroke="#BA02CA" stroke-width="1.5" stroke-linecap="round" stroke-linejoin="round"/>
<path d="M13.2001 2.90405C13.8884 3.08029 14.4985 3.48061 14.9342 4.0419C15.3699 4.60319 15.6063 5.29352 15.6063 6.00405C15.6063 6.71459 15.3699 7.40492 14.9342 7.9662C14.4985 8.52749 13.8884 8.92781 13.2001 9.10405" stroke="#BA02CA" stroke-width="1.5" stroke-linecap="round" stroke-linejoin="round"/>
<path d="M17.2 17.2V15.6C17.196 14.8937 16.9584 14.2087 16.5243 13.6515C16.0901 13.0944 15.4839 12.6966 14.8 12.52" stroke="#BA02CA" stroke-width="1.5" stroke-linecap="round" stroke-linejoin="round"/>
</g>
<defs>
<clipPath id="clip0_1524_4132">
<rect width="19.2" height="19.2" fill="white" transform="translate(0.400024 0.400024)"/>
</clipPath>
</defs>
</svg>
