<svg width="32" height="33" viewBox="0 0 32 33" fill="none" xmlns="http://www.w3.org/2000/svg">
<g id="pix-icon">
<g id="Group">
<path id="path2376_2_" d="M24.2542 24.3088C23.0963 24.3088 22.0109 23.8635 21.1911 23.0437L16.7755 18.628C16.472 18.3245 15.921 18.3245 15.6175 18.628L11.1837 23.0618C10.3639 23.8816 9.27856 24.327 8.12062 24.327H7.24805L12.8579 29.9369C14.6031 31.682 17.4518 31.682 19.1969 29.9369L24.8233 24.3105L24.2542 24.3088Z" fill="#BA02CA"/>
<path id="path2380_2_" d="M8.10166 8.67297C9.2596 8.67297 10.345 9.11833 11.1648 9.93813L15.5986 14.3719C15.9186 14.6919 16.4349 14.6919 16.7565 14.3719L21.1903 9.95627C22.0101 9.13648 23.0955 8.69112 24.2534 8.69112H24.7878L19.1615 3.06473C17.4163 1.31957 14.5676 1.31957 12.8225 3.06473L7.21094 8.67297H8.10166Z" fill="#BA02CA"/>
<path id="path2384_2_" d="M29.4348 13.3393L26.0336 9.93807C25.9627 9.97435 25.8736 9.99085 25.7845 9.99085H24.2357C23.434 9.99085 22.6505 10.3108 22.0996 10.8816L17.6823 15.2972C17.2732 15.7063 16.7206 15.9207 16.1862 15.9207C15.6336 15.9207 15.0992 15.7063 14.6901 15.2972L10.2563 10.8634C9.6872 10.2944 8.90369 9.97271 8.12019 9.97271H6.21503C6.12596 9.97271 6.05503 9.95456 5.98411 9.91992L2.56473 13.3393C0.819571 15.0845 0.819571 17.9331 2.56473 19.6783L5.96596 23.0795C6.03689 23.0432 6.10782 23.0267 6.19689 23.0267H8.10205C8.90369 23.0267 9.6872 22.7067 10.2381 22.136L14.6719 17.7022C15.4736 16.9005 16.8806 16.9005 17.6806 17.7022L22.0963 22.1179C22.6653 22.6869 23.4489 23.0086 24.2324 23.0086H25.7812C25.8703 23.0086 25.9412 23.0267 26.0303 23.0614L29.4315 19.6601C31.18 17.915 31.18 15.0845 29.4348 13.3393Z" fill="#BA02CA"/>
</g>
</g>
</svg>
