<svg width="244" height="90" viewBox="0 0 244 90" fill="none" xmlns="http://www.w3.org/2000/svg">
  <rect x="1" y="1" width="241.803" height="88" rx="13.283" fill="white"/>
  <rect x="0.501887" y="0.501887" width="242.8" height="88.9962" rx="13.7811" stroke="#DF8BE6" stroke-opacity="0.5" stroke-width="0.996226"/>
  <path d="M56.4252 46.334C56.4729 42.616 58.4619 39.098 61.6171 37.1506C59.6266 34.2967 56.2926 32.4873 52.8239 32.3783C49.1242 31.9885 45.5376 34.6008 43.6523 34.6008C41.7306 34.6008 38.8279 32.417 35.7022 32.4816C31.628 32.6137 27.8298 34.9392 25.8476 38.515C21.5867 45.9209 24.7649 56.8052 28.8465 62.7916C30.8887 65.7229 33.2753 68.9973 36.3982 68.8812C39.4541 68.754 40.5955 66.925 44.2842 66.925C47.9387 66.925 49.0096 68.8812 52.1958 68.8074C55.4749 68.754 57.541 65.863 59.5114 62.9039C60.9787 60.8152 62.1077 58.5067 62.8568 56.064C59.0032 54.4277 56.4297 50.5345 56.4252 46.334Z" fill="#090909"/>
  <path d="M50.4069 28.4414C52.1948 26.2867 53.0757 23.5171 52.8624 20.7209C50.1308 21.009 47.6076 22.3196 45.7955 24.3916C44.0235 26.4161 43.1014 29.1369 43.2757 31.8262C46.0083 31.8545 48.6946 30.5794 50.4069 28.4414Z" fill="#090909"/>
  <path d="M165.421 42.4941V46.9995H162.608V49.9541H165.421V59.9933C165.421 63.4213 166.966 64.7925 170.852 64.7925C171.535 64.7925 172.185 64.7108 172.755 64.6129V61.6909C172.267 61.7399 171.958 61.7726 171.421 61.7726C169.681 61.7726 168.917 60.9564 168.917 59.0954V49.9541H172.755V46.9995H168.917V42.4941H165.421Z" fill="#090909"/>
  <path d="M182.655 65.0373C187.825 65.0373 190.996 61.5603 190.996 55.798C190.996 50.0684 187.809 46.5751 182.655 46.5751C177.484 46.5751 174.297 50.0684 174.297 55.798C174.297 61.5603 177.467 65.0373 182.655 65.0373ZM182.655 61.9195C179.614 61.9195 177.906 59.6831 177.906 55.798C177.906 51.9456 179.614 49.6929 182.655 49.6929C185.679 49.6929 187.403 51.9456 187.403 55.798C187.403 59.6668 185.679 61.9195 182.655 61.9195Z" fill="#090909"/>
  <path d="M193.709 64.6945H197.205V54.1983C197.205 51.7008 199.075 50.0194 201.725 50.0194C202.343 50.0194 203.384 50.1337 203.677 50.2316V46.771C203.303 46.673 202.636 46.624 202.116 46.624C199.807 46.624 197.839 47.8973 197.335 49.6439H197.075V46.9179H193.709V64.6945Z" fill="#090909"/>
  <path d="M212.357 49.5623C214.942 49.5623 216.633 51.3743 216.715 54.1656H207.772C207.967 51.3906 209.772 49.5623 212.357 49.5623ZM216.699 59.8953C216.048 61.2828 214.601 62.0501 212.487 62.0501C209.69 62.0501 207.885 60.0749 207.772 56.957V56.7611H220.276V55.5369C220.276 49.9541 217.3 46.5751 212.373 46.5751C207.381 46.5751 204.211 50.1826 204.211 55.8633C204.211 61.544 207.316 65.0373 212.39 65.0373C216.438 65.0373 219.268 63.0785 220.064 59.8953H216.699Z" fill="#090909"/>
  <path d="M142.495 58.1299C142.765 62.495 146.388 65.2867 151.781 65.2867C157.545 65.2867 161.152 62.3597 161.152 57.69C161.152 54.0185 159.096 51.9882 154.107 50.8208L151.427 50.161C148.259 49.4165 146.978 48.4183 146.978 46.6756C146.978 44.4761 148.967 43.038 151.95 43.038C154.781 43.038 156.736 44.4423 157.09 46.6925H160.764C160.545 42.5812 156.938 39.688 152 39.688C146.692 39.688 143.152 42.5812 143.152 46.9294C143.152 50.5163 145.158 52.6481 149.557 53.6801L152.691 54.4415C155.91 55.2029 157.326 56.3195 157.326 58.1806C157.326 60.3463 155.101 61.9198 152.068 61.9198C148.815 61.9198 146.557 60.4478 146.236 58.1299H142.495Z" fill="#090909"/>
  <path d="M106.28 46.624C103.874 46.624 101.792 47.832 100.719 49.8562H100.459V46.9179H97.0932V70.6037H100.589V62.0011H100.866C101.792 63.8783 103.792 64.9883 106.313 64.9883C110.784 64.9883 113.63 61.4461 113.63 55.798C113.63 50.15 110.784 46.624 106.28 46.624ZM105.288 61.8378C102.362 61.8378 100.524 59.5199 100.524 55.8144C100.524 52.0925 102.362 49.7745 105.305 49.7745C108.264 49.7745 110.036 52.0436 110.036 55.798C110.036 59.5688 108.264 61.8378 105.288 61.8378Z" fill="#090909"/>
  <path d="M125.863 46.624C123.456 46.624 121.375 47.832 120.302 49.8562H120.042V46.9179H116.676V70.6037H120.172V62.0011H120.448C121.375 63.8783 123.375 64.9883 125.895 64.9883C130.367 64.9883 133.213 61.4461 133.213 55.798C133.213 50.15 130.367 46.624 125.863 46.624ZM124.871 61.8378C121.944 61.8378 120.107 59.5199 120.107 55.8144C120.107 52.0925 121.944 49.7745 124.887 49.7745C127.847 49.7745 129.619 52.0436 129.619 55.798C129.619 59.5688 127.847 61.8378 124.871 61.8378Z" fill="#090909"/>
  <path d="M90.8208 64.6945H94.8319L86.0513 40.2802H81.9896L73.209 64.6945H77.0853L79.3268 58.2145H88.5961L90.8208 64.6945ZM83.8266 44.713H84.1131L87.6355 55.0337H80.2874L83.8266 44.713Z" fill="#090909"/>
  <path d="M73.1123 23.0598V32.7102H76.5831C79.4476 32.7102 81.1064 30.9379 81.1064 27.8549C81.1064 24.8187 79.4343 23.0598 76.5831 23.0598H73.1123ZM74.6045 24.4241H76.4165C78.4084 24.4241 79.5875 25.6947 79.5875 27.8749C79.5875 30.0886 78.4284 31.3459 76.4165 31.3459H74.6045V24.4241Z" fill="#090909"/>
  <path d="M86.1866 32.8506C88.305 32.8506 89.604 31.4261 89.604 29.0654C89.604 26.718 88.2983 25.2868 86.1866 25.2868C84.0682 25.2868 82.7625 26.718 82.7625 29.0654C82.7625 31.4261 84.0615 32.8506 86.1866 32.8506ZM86.1866 31.5732C84.9408 31.5732 84.2414 30.657 84.2414 29.0654C84.2414 27.4871 84.9408 26.5642 86.1866 26.5642C87.4257 26.5642 88.1318 27.4871 88.1318 29.0654C88.1318 30.6503 87.4257 31.5732 86.1866 31.5732Z" fill="#090909"/>
  <path d="M100.666 25.4272H99.2342L97.9418 30.9847H97.8286L96.3364 25.4272H94.9641L93.4718 30.9847H93.3652L92.0662 25.4272H90.614L92.6125 32.7102H94.0847L95.5769 27.3466H95.6902L97.1891 32.7102H98.6746L100.666 25.4272Z" fill="#090909"/>
  <path d="M102.316 32.7102H103.748V28.4501C103.748 27.3132 104.421 26.6043 105.48 26.6043C106.539 26.6043 107.046 27.1861 107.046 28.3565V32.7102H108.478V27.9953C108.478 26.2632 107.585 25.2868 105.967 25.2868C104.874 25.2868 104.155 25.775 103.801 26.5842H103.695V25.4272H102.316V32.7102Z" fill="#090909"/>
  <path d="M110.734 32.7102H112.166V22.585H110.734V32.7102Z" fill="#090909"/>
  <path d="M117.553 32.8506C119.671 32.8506 120.97 31.4261 120.97 29.0654C120.97 26.718 119.664 25.2868 117.553 25.2868C115.434 25.2868 114.128 26.718 114.128 29.0654C114.128 31.4261 115.427 32.8506 117.553 32.8506ZM117.553 31.5732C116.307 31.5732 115.607 30.657 115.607 29.0654C115.607 27.4871 116.307 26.5642 117.553 26.5642C118.792 26.5642 119.498 27.4871 119.498 29.0654C119.498 30.6503 118.792 31.5732 117.553 31.5732Z" fill="#090909"/>
  <path d="M125.238 31.6201C124.458 31.6201 123.892 31.2389 123.892 30.5835C123.892 29.9414 124.345 29.6004 125.344 29.5335L127.116 29.4198V30.0284C127.116 30.9312 126.317 31.6201 125.238 31.6201ZM124.871 32.8305C125.824 32.8305 126.617 32.4159 127.05 31.6869H127.163V32.7102H128.542V27.7345C128.542 26.1963 127.516 25.2868 125.697 25.2868C124.052 25.2868 122.879 26.0893 122.733 27.3399H124.118C124.278 26.825 124.831 26.5307 125.631 26.5307C126.61 26.5307 127.116 26.9654 127.116 27.7345V28.3631L125.151 28.4768C123.426 28.5838 122.453 29.3396 122.453 30.6503C122.453 31.9812 123.472 32.8305 124.871 32.8305Z" fill="#090909"/>
  <path d="M133.402 32.8305C134.401 32.8305 135.247 32.3557 135.68 31.5599H135.794V32.7102H137.166V22.585H135.734V26.5842H135.627C135.234 25.7817 134.395 25.3069 133.402 25.3069C131.57 25.3069 130.391 26.7648 130.391 29.0654C130.391 31.3726 131.557 32.8305 133.402 32.8305ZM133.808 26.5976C135.008 26.5976 135.76 27.5539 135.76 29.072C135.76 30.5968 135.014 31.5398 133.808 31.5398C132.596 31.5398 131.87 30.6102 131.87 29.0654C131.87 27.5339 132.603 26.5976 133.808 26.5976Z" fill="#090909"/>
  <path d="M146.454 32.8506C148.572 32.8506 149.871 31.4261 149.871 29.0654C149.871 26.718 148.566 25.2868 146.454 25.2868C144.335 25.2868 143.03 26.718 143.03 29.0654C143.03 31.4261 144.329 32.8506 146.454 32.8506ZM146.454 31.5732C145.208 31.5732 144.509 30.657 144.509 29.0654C144.509 27.4871 145.208 26.5642 146.454 26.5642C147.693 26.5642 148.399 27.4871 148.399 29.0654C148.399 30.6503 147.693 31.5732 146.454 31.5732Z" fill="#090909"/>
  <path d="M151.767 32.7102H153.199V28.4501C153.199 27.3132 153.872 26.6043 154.931 26.6043C155.991 26.6043 156.497 27.1861 156.497 28.3565V32.7102H157.929V27.9953C157.929 26.2632 157.037 25.2868 155.418 25.2868C154.325 25.2868 153.606 25.775 153.253 26.5842H153.146V25.4272H151.767V32.7102Z" fill="#090909"/>
  <path d="M164.526 23.6149V25.4607H163.373V26.6712H164.526V30.7841C164.526 32.1885 165.159 32.7503 166.751 32.7503C167.03 32.7503 167.297 32.7168 167.53 32.6767V31.4796C167.33 31.4997 167.204 31.5131 166.984 31.5131C166.271 31.5131 165.958 31.1787 165.958 30.4163V26.6712H167.53V25.4607H165.958V23.6149H164.526Z" fill="#090909"/>
  <path d="M169.453 32.7102H170.885V28.4568C170.885 27.3533 171.538 26.611 172.71 26.611C173.723 26.611 174.262 27.1995 174.262 28.3631V32.7102H175.695V28.0087C175.695 26.2766 174.742 25.2935 173.197 25.2935C172.104 25.2935 171.338 25.7817 170.985 26.5976H170.872V22.585H169.453V32.7102Z" fill="#090909"/>
  <path d="M180.861 26.5106C181.921 26.5106 182.614 27.253 182.647 28.3966H178.983C179.063 27.2597 179.802 26.5106 180.861 26.5106ZM182.64 30.744C182.374 31.3124 181.781 31.6267 180.915 31.6267C179.769 31.6267 179.03 30.8175 178.983 29.5402V29.4599H184.106V28.9584C184.106 26.6712 182.887 25.2868 180.868 25.2868C178.823 25.2868 177.524 26.7648 177.524 29.0921C177.524 31.4194 178.796 32.8506 180.875 32.8506C182.534 32.8506 183.693 32.0481 184.019 30.744H182.64Z" fill="#090909"/>
</svg>