<svg width="26" height="26" viewBox="0 0 26 26" fill="none" xmlns="http://www.w3.org/2000/svg">
<path d="M13 0C10.4288 0 7.91543 0.762437 5.77759 2.1909C3.63975 3.61935 1.97351 5.64968 0.989572 8.02512C0.0056327 10.4006 -0.251811 13.0144 0.249797 15.5362C0.751405 18.0579 1.98953 20.3743 3.80762 22.1924C5.6257 24.0105 7.94208 25.2486 10.4638 25.7502C12.9856 26.2518 15.5995 25.9944 17.9749 25.0104C20.3503 24.0265 22.3807 22.3603 23.8091 20.2224C25.2376 18.0846 26 15.5712 26 13C25.996 9.55341 24.6251 6.24912 22.188 3.81201C19.7509 1.3749 16.4466 0.00398351 13 0ZM17.9492 12.9492C17.8564 13.0421 17.7462 13.1158 17.6249 13.166C17.5035 13.2163 17.3735 13.2422 17.2422 13.2422C17.1109 13.2422 16.9808 13.2163 16.8595 13.166C16.7382 13.1158 16.628 13.0421 16.5352 12.9492L14 10.4141V18C14 18.2652 13.8946 18.5196 13.7071 18.7071C13.5196 18.8946 13.2652 19 13 19C12.7348 19 12.4804 18.8946 12.2929 18.7071C12.1054 18.5196 12 18.2652 12 18V10.4141L9.46485 12.9492C9.27726 13.1364 9.02304 13.2415 8.75804 13.2413C8.49303 13.2412 8.23892 13.1359 8.05154 12.9485C7.86415 12.7611 7.75882 12.507 7.75868 12.242C7.75854 11.977 7.8636 11.7227 8.05079 11.5352L12.2918 7.29419C12.4798 7.10668 12.7345 7.00138 13 7.00138C13.2655 7.00138 13.5202 7.10668 13.7083 7.29419L17.9492 11.5352C18.0421 11.628 18.1158 11.7382 18.166 11.8595C18.2163 11.9808 18.2422 12.1109 18.2422 12.2422C18.2422 12.3735 18.2163 12.5035 18.166 12.6249C18.1158 12.7462 18.0421 12.8564 17.9492 12.9492Z" fill="#FADBFD"/>
</svg>
