<svg width="176" height="176" viewBox="0 0 176 176" fill="none" xmlns="http://www.w3.org/2000/svg">
<path fill-rule="evenodd" clip-rule="evenodd" d="M175.928 87.9278C175.928 136.489 136.562 175.856 88 175.856C39.4386 175.856 0.0722656 136.489 0.0722656 87.9278C0.0722656 39.3663 39.4386 0 88 0C136.562 0 175.928 39.3663 175.928 87.9278Z" fill="#E8E8E9"/>
<path fill-rule="evenodd" clip-rule="evenodd" d="M88 87.9278L29.8256 153.86C10.9185 137.177 0.0722656 113.143 0.0722656 87.9278C0.0722656 39.6919 39.7642 0 88 0C136.236 0 175.928 39.6919 175.928 87.9278H88Z" fill="#E8E8E9"/>
<path fill-rule="evenodd" clip-rule="evenodd" d="M88 87.9278L50.135 167.285C19.5999 152.716 0.0722656 121.761 0.0722656 87.9278C0.0722656 55.0351 18.5294 24.7849 47.779 9.73886L88 87.9278Z" fill="#E8E8E9"/>
</svg>
