<svg width="36" height="33" viewBox="0 0 36 33" fill="none" xmlns="http://www.w3.org/2000/svg">
<g id="credit-card-solid 1">
<path id="Vector" d="M4 2.5C1.79375 2.5 0 4.29375 0 6.5V8.5H36V6.5C36 4.29375 34.2062 2.5 32 2.5H4ZM36 14.5H0V26.5C0 28.7062 1.79375 30.5 4 30.5H32C34.2062 30.5 36 28.7062 36 26.5V14.5ZM7 22.5H11C11.55 22.5 12 22.95 12 23.5C12 24.05 11.55 24.5 11 24.5H7C6.45 24.5 6 24.05 6 23.5C6 22.95 6.45 22.5 7 22.5ZM14 23.5C14 22.95 14.45 22.5 15 22.5H23C23.55 22.5 24 22.95 24 23.5C24 24.05 23.55 24.5 23 24.5H15C14.45 24.5 14 24.05 14 23.5Z" fill="#BA02CA"/>
</g>
</svg>
