<svg width="24" height="25" viewBox="0 0 24 25" fill="none" xmlns="http://www.w3.org/2000/svg">
<path d="M20.8656 10.9505C20.5628 9.21817 19.7592 7.61252 18.554 6.3319C17.3488 5.05128 15.7948 4.15181 14.084 3.7446C12.3732 3.3374 10.5806 3.44031 8.92771 4.04063C7.27478 4.64094 5.83394 5.71235 4.78319 7.12249C3.73245 8.53262 3.11784 10.2197 3.01531 11.9753C2.91278 13.7308 3.32682 15.478 4.20626 17.0008C5.08571 18.5237 6.39204 19.7556 7.96384 20.5442C9.53565 21.3329 11.3041 21.6438 13.0506 21.4385M12 7.5V12.5L13.5 14M21 15.5H18.5C18.1022 15.5 17.7206 15.658 17.4393 15.9393C17.158 16.2206 17 16.6022 17 17C17 17.3978 17.158 17.7794 17.4393 18.0607C17.7206 18.342 18.1022 18.5 18.5 18.5H19.5C19.8978 18.5 20.2794 18.658 20.5607 18.9393C20.842 19.2206 21 19.6022 21 20C21 20.3978 20.842 20.7794 20.5607 21.0607C20.2794 21.342 19.8978 21.5 19.5 21.5H17M19 21.5V22.5M19 14.5V15.5" stroke="#45444C" stroke-width="2" stroke-linecap="round" stroke-linejoin="round"/>
</svg>
