<svg width="40" height="40" viewBox="0 0 40 40" fill="none" xmlns="http://www.w3.org/2000/svg">
<path fill-rule="evenodd" clip-rule="evenodd" d="M40 20C40 31.0457 31.0457 40 20 40C8.95431 40 0 31.0457 0 20C0 8.95431 8.95431 0 20 0C31.0457 0 40 8.95431 40 20ZM20.0932 22.8426C23.7794 17.6297 23.9421 14.4703 20.0932 8.88889C16.1708 14.5894 16.6764 17.611 20.0932 22.8426ZM18.3428 29.633C18.9287 23.2753 17.49 20.458 11.366 17.5488C10.8193 24.4468 12.768 26.8108 18.3428 29.633ZM21.8674 29.633C21.2816 23.2753 22.7203 20.458 28.8443 17.5488C29.3909 24.4468 27.4423 26.8108 21.8674 29.633Z" fill="black"/>
</svg>
