<svg width="32" height="33" viewBox="0 0 32 33" fill="none" xmlns="http://www.w3.org/2000/svg">
<g id="tabler-icon-sparkles">
<path id="Vector" d="M21.3333 24.8334C22.0406 24.8334 22.7189 25.1144 23.2189 25.6145C23.719 26.1146 24 26.7928 24 27.5001C24 26.7928 24.281 26.1146 24.781 25.6145C25.2811 25.1144 25.9594 24.8334 26.6667 24.8334C25.9594 24.8334 25.2811 24.5525 24.781 24.0524C24.281 23.5523 24 22.874 24 22.1667C24 22.874 23.719 23.5523 23.2189 24.0524C22.7189 24.5525 22.0406 24.8334 21.3333 24.8334ZM21.3333 8.83341C22.0406 8.83341 22.7189 9.11437 23.2189 9.61446C23.719 10.1146 24 10.7928 24 11.5001C24 10.7928 24.281 10.1146 24.781 9.61446C25.2811 9.11437 25.9594 8.83341 26.6667 8.83341C25.9594 8.83341 25.2811 8.55246 24.781 8.05237C24.281 7.55227 24 6.87399 24 6.16675C24 6.87399 23.719 7.55227 23.2189 8.05237C22.7189 8.55246 22.0406 8.83341 21.3333 8.83341ZM12 24.8334C12 22.7117 12.8429 20.6769 14.3431 19.1766C15.8434 17.6763 17.8783 16.8334 20 16.8334C17.8783 16.8334 15.8434 15.9906 14.3431 14.4903C12.8429 12.99 12 10.9551 12 8.83341C12 10.9551 11.1571 12.99 9.65685 14.4903C8.15656 15.9906 6.12173 16.8334 4 16.8334C6.12173 16.8334 8.15656 17.6763 9.65685 19.1766C11.1571 20.6769 12 22.7117 12 24.8334Z" stroke="#45444C" stroke-width="2.5" stroke-linecap="round" stroke-linejoin="round"/>
</g>
</svg>
