<svg width="40" height="43" viewBox="0 0 40 43" fill="none" xmlns="http://www.w3.org/2000/svg">
<path d="M20.0001 40.1323C30.2493 40.1323 38.5579 31.8238 38.5579 21.5746C38.5579 11.3255 30.2493 3.01688 20.0001 3.01688C9.75096 3.01688 1.44238 11.3255 1.44238 21.5746C1.44238 31.8238 9.75096 40.1323 20.0001 40.1323Z" fill="#0129F3"/>
<path d="M19.8888 33.7969C18.3424 33.7969 16.795 33.8173 15.2486 33.7901C14.1236 33.7706 13.1426 33.3473 12.3222 32.5707C11.9797 32.2466 11.712 31.867 11.4765 31.4603C9.9895 28.8784 8.48593 26.3072 7.01447 23.7166C6.19212 22.2695 6.19407 20.7785 7.01447 19.3324C8.50734 16.7019 10.0275 14.0879 11.5486 11.4739C12.2668 10.2389 13.346 9.49928 14.7659 9.31146C15.306 9.24041 15.8598 9.25793 16.4077 9.25696C19.0966 9.25209 21.7855 9.2336 24.4735 9.2628C26.1376 9.28129 27.4242 10.0423 28.265 11.4807C29.789 14.0879 31.3014 16.7028 32.7933 19.3285C33.6185 20.7805 33.6166 22.2743 32.7923 23.7244C31.2965 26.3578 29.7744 28.9767 28.2494 31.5936C27.5351 32.8198 26.4588 33.5497 25.0506 33.7375C24.5105 33.8095 23.9567 33.793 23.4088 33.7969C22.2351 33.8047 21.0615 33.7988 19.8878 33.7988V33.7969H19.8888Z" fill="white"/>
<path d="M19.8958 29.1694C18.9323 29.1694 17.9689 29.182 17.0054 29.1655C16.3047 29.1538 15.6936 28.8901 15.1817 28.4054C14.9685 28.203 14.8011 27.9675 14.6552 27.7135C13.7287 26.1058 12.7915 24.5029 11.8748 22.8894C11.3629 21.9882 11.3638 21.0588 11.8748 20.1586C12.8051 18.5198 13.7521 16.8916 14.6999 15.2635C15.1476 14.4937 15.8201 14.0334 16.7047 13.9166C17.0414 13.8718 17.3859 13.8835 17.7275 13.8825C19.4024 13.8796 21.0772 13.8679 22.7521 13.8864C23.7885 13.8981 24.5895 14.372 25.114 15.2684C26.0639 16.8926 27.0049 18.5217 27.9353 20.1577C28.4491 21.0617 28.4482 21.9921 27.9343 22.8962C27.002 24.537 26.0541 26.1681 25.1043 27.7982C24.6595 28.5621 23.989 29.0166 23.1112 29.1334C22.7745 29.1781 22.43 29.1684 22.0884 29.1703C21.3575 29.1752 20.6257 29.1713 19.8948 29.1713C19.8958 29.1703 19.8958 29.1694 19.8958 29.1694Z" fill="#EC4224"/>
</svg>
