<svg width="32" height="33" viewBox="0 0 32 33" fill="none" xmlns="http://www.w3.org/2000/svg">
<g id="tabler-icon-mood-dollar">
<path id="Vector" d="M27.8266 14.3066C27.4308 11.997 26.3675 9.85383 24.7679 8.14153C23.1682 6.42923 21.1023 5.22273 18.8249 4.67092C16.5476 4.1191 14.1585 4.24612 11.9525 5.03629C9.74647 5.82646 7.82008 7.24521 6.41101 9.11747C5.00194 10.9897 4.17186 13.2336 4.02319 15.5721C3.87452 17.9106 4.41377 20.2415 5.5744 22.2771C6.73503 24.3128 8.46625 25.964 10.5544 27.0272C12.6426 28.0904 14.9964 28.5189 17.3253 28.2599M11.9999 13.6666H12.0133M19.9999 13.6666H20.0133M12.6666 20.3333C13.5439 21.1866 14.7466 21.6666 15.9999 21.6666C16.4759 21.6666 16.9453 21.5973 17.3906 21.4653M27.9999 20.3333H24.6666C24.1362 20.3333 23.6275 20.544 23.2524 20.919C22.8773 21.2941 22.6666 21.8028 22.6666 22.3333C22.6666 22.8637 22.8773 23.3724 23.2524 23.7475C23.6275 24.1225 24.1362 24.3333 24.6666 24.3333H25.9999C26.5304 24.3333 27.0391 24.544 27.4142 24.919C27.7892 25.2941 27.9999 25.8028 27.9999 26.3333C27.9999 26.8637 27.7892 27.3724 27.4142 27.7475C27.0391 28.1225 26.5304 28.3333 25.9999 28.3333H22.6666M25.3333 28.3333V29.6666M25.3333 18.9999V20.3333" stroke="#DF8BE6" stroke-width="2.66667" stroke-linecap="round" stroke-linejoin="round"/>
</g>
</svg>
