<svg width="32" height="33" viewBox="0 0 32 33" fill="none" xmlns="http://www.w3.org/2000/svg">
<path d="M20 25.6664H6.66667C5.95942 25.6664 5.28115 25.3855 4.78105 24.8854C4.28095 24.3853 4 23.707 4 22.9998V9.66642M4 9.66642C4 8.95918 4.28095 8.2809 4.78105 7.7808C5.28115 7.28071 5.95942 6.99976 6.66667 6.99976H25.3333C26.0406 6.99976 26.7189 7.28071 27.219 7.7808C27.719 8.2809 28 8.95918 28 9.66642M4 9.66642L16 17.6664L28 9.66642M28 9.66642V16.9998M25.3333 21.6664V25.6664M25.3333 29.6664V29.6798" stroke="#45444C" stroke-width="2.5" stroke-linecap="round" stroke-linejoin="round"/>
</svg>
