<svg width="24" height="25" viewBox="0 0 24 25" fill="none" xmlns="http://www.w3.org/2000/svg">
<g id="tabler-icon-login">
<path id="Vector" d="M14 8.83325V6.83325C14 6.30282 13.7893 5.79411 13.4142 5.41904C13.0391 5.04397 12.5304 4.83325 12 4.83325H5C4.46957 4.83325 3.96086 5.04397 3.58579 5.41904C3.21071 5.79411 3 6.30282 3 6.83325V18.8333C3 19.3637 3.21071 19.8724 3.58579 20.2475C3.96086 20.6225 4.46957 20.8333 5 20.8333H12C12.5304 20.8333 13.0391 20.6225 13.4142 20.2475C13.7893 19.8724 14 19.3637 14 18.8333V16.8333M20 12.8333H7M7 12.8333L10 9.83325M7 12.8333L10 15.8333" stroke="#BA02C9" stroke-width="2" stroke-linecap="round" stroke-linejoin="round"/>
</g>
</svg>
