<svg width="32" height="32" viewBox="0 0 32 32" fill="none" xmlns="http://www.w3.org/2000/svg">
<g id="TwitterLogo/Fill">
<path id="Vector" d="M30.7072 9.70702L26.9367 13.4776C26.1838 22.2127 18.8173 28.9999 10 28.9999C8.18445 28.9999 6.68824 28.7121 5.5528 28.1443C4.63648 27.6862 4.26111 27.1944 4.16797 27.0546C4.08441 26.9293 4.03025 26.7867 4.00953 26.6375C3.9888 26.4883 4.00206 26.3363 4.0483 26.1929C4.09453 26.0496 4.17257 25.9185 4.27656 25.8095C4.38055 25.7006 4.50783 25.6165 4.64887 25.5636C4.68104 25.5514 7.62989 24.4189 9.53577 22.2625C8.35031 21.4184 7.30695 20.3907 6.44495 19.2181C4.73145 16.8927 2.9192 12.8542 4.01612 6.82103C4.04877 6.64148 4.12993 6.47429 4.2508 6.33756C4.37168 6.20084 4.52766 6.0998 4.70186 6.04539C4.87605 5.99098 5.06182 5.98528 5.23902 6.02889C5.41623 6.07251 5.57812 6.16378 5.70716 6.29283C5.75123 6.33678 9.91242 10.4392 14.9993 11.7643L15 10.9994C15.0108 9.39835 15.6568 7.86706 16.7962 6.74213C17.9356 5.61721 19.475 4.99072 21.0761 5.00035C22.1162 5.01476 23.1348 5.29869 24.0324 5.82442C24.9299 6.35016 25.6758 7.09971 26.1971 7.99987L30 7.99993C30.1978 7.99993 30.3911 8.05857 30.5556 8.16845C30.72 8.27833 30.8482 8.4345 30.9239 8.61723C30.9996 8.79995 31.0194 9.00101 30.9808 9.19499C30.9422 9.38897 30.847 9.56716 30.7072 9.70702Z" fill="#DF8BE6"/>
</g>
</svg>
