<svg width="32" height="33" viewBox="0 0 32 33" fill="none" xmlns="http://www.w3.org/2000/svg">
<path d="M1.5 2.5C0.66875 2.5 0 3.16875 0 4V29C0 29.8312 0.66875 30.5 1.5 30.5H2.5C3.33125 30.5 4 29.8312 4 29V4C4 3.16875 3.33125 2.5 2.5 2.5H1.5ZM7 2.5C6.45 2.5 6 2.95 6 3.5V29.5C6 30.05 6.45 30.5 7 30.5C7.55 30.5 8 30.05 8 29.5V3.5C8 2.95 7.55 2.5 7 2.5ZM11.5 2.5C10.6687 2.5 10 3.16875 10 4V29C10 29.8312 10.6687 30.5 11.5 30.5H12.5C13.3313 30.5 14 29.8312 14 29V4C14 3.16875 13.3313 2.5 12.5 2.5H11.5ZM17.5 2.5C16.6688 2.5 16 3.16875 16 4V29C16 29.8312 16.6688 30.5 17.5 30.5H18.5C19.3312 30.5 20 29.8312 20 29V4C20 3.16875 19.3312 2.5 18.5 2.5H17.5ZM28 4V29C28 29.8312 28.6688 30.5 29.5 30.5H30.5C31.3312 30.5 32 29.8312 32 29V4C32 3.16875 31.3312 2.5 30.5 2.5H29.5C28.6688 2.5 28 3.16875 28 4ZM24 3.5V29.5C24 30.05 24.45 30.5 25 30.5C25.55 30.5 26 30.05 26 29.5V3.5C26 2.95 25.55 2.5 25 2.5C24.45 2.5 24 2.95 24 3.5Z" fill="#BA02CA"/>
</svg>
