<svg width="32" height="33" viewBox="0 0 32 33" fill="none" xmlns="http://www.w3.org/2000/svg">
<path d="M26.0001 9.66661C24.9016 8.02259 23.414 6.67547 21.6694 5.74502C19.9248 4.81456 17.9773 4.32961 16.0001 4.33327C14.0263 4.33207 12.0827 4.81824 10.342 5.74863C8.6012 6.67902 7.1171 8.02485 6.02142 9.66661M15.3334 4.33325C14.2942 5.99806 13.4758 7.79085 12.8987 9.66659M16.6667 4.33325C17.7068 5.99792 18.5261 7.79071 19.1041 9.66659M26.0001 22.9999C24.9016 24.6439 23.414 25.9911 21.6694 26.9215C19.9248 27.852 17.9773 28.3369 16.0001 28.3333C14.0263 28.3345 12.0827 27.8483 10.342 26.9179C8.6012 25.9875 7.1171 24.6417 6.02142 22.9999M15.3334 28.3333C14.2942 26.6684 13.4758 24.8757 12.8987 22.9999M16.6667 28.3333C17.7068 26.6686 18.5261 24.8758 19.1041 22.9999M2.66675 13.6666L4.00008 18.9999L6.00008 13.6666L8.00008 18.9999L9.33341 13.6666M22.6667 13.6666L24.0001 18.9999L26.0001 13.6666L28.0001 18.9999L29.3334 13.6666M12.6667 13.6666L14.0001 18.9999L16.0001 13.6666L18.0001 18.9999L19.3334 13.6666" stroke="#DF8BE6" stroke-width="2.66667" stroke-linecap="round" stroke-linejoin="round"/>
</svg>
