<svg width="48" height="49" viewBox="0 0 48 49" fill="none" xmlns="http://www.w3.org/2000/svg">
<g id="tabler-icon-circle-1-filled">
<path id="Vector" d="M24 4.33325C35.046 4.33325 44 13.2873 44 24.3333C44 35.3793 35.046 44.3333 24 44.3333C12.954 44.3333 4 35.3793 4 24.3333C4 13.2873 12.954 4.33325 24 4.33325ZM25.988 16.1053C25.822 14.5513 23.972 13.7853 22.754 14.7653L22.586 14.9193L18.586 18.9193L18.42 19.1073C18.1479 19.458 18.0002 19.8893 18.0002 20.3333C18.0002 20.7772 18.1479 21.2085 18.42 21.5593L18.586 21.7473L18.774 21.9133C19.1247 22.1854 19.5561 22.3331 20 22.3331C20.4439 22.3331 20.8753 22.1854 21.226 21.9133L21.414 21.7473L22 21.1613V32.3333L22.014 32.5673C22.0718 33.0534 22.3059 33.5014 22.6719 33.8264C23.0379 34.1515 23.5105 34.331 24 34.331C24.4895 34.331 24.9621 34.1515 25.3281 33.8264C25.6941 33.5014 25.9282 33.0534 25.986 32.5673L26 32.3333V16.3333L25.988 16.1053Z" fill="#BA02C9"/>
</g>
</svg>
