<svg width="24" height="25" viewBox="0 0 24 25" fill="none" xmlns="http://www.w3.org/2000/svg">
<g id="tabler-icon-copy">
<path id="Vector" d="M16 8.33325V6.33325C16 5.80282 15.7893 5.29411 15.4142 4.91904C15.0391 4.54397 14.5304 4.33325 14 4.33325H6C5.46957 4.33325 4.96086 4.54397 4.58579 4.91904C4.21071 5.29411 4 5.80282 4 6.33325V14.3333C4 14.8637 4.21071 15.3724 4.58579 15.7475C4.96086 16.1225 5.46957 16.3333 6 16.3333H8M8 10.3333C8 9.80282 8.21071 9.29411 8.58579 8.91904C8.96086 8.54397 9.46957 8.33325 10 8.33325H18C18.5304 8.33325 19.0391 8.54397 19.4142 8.91904C19.7893 9.29411 20 9.80282 20 10.3333V18.3333C20 18.8637 19.7893 19.3724 19.4142 19.7475C19.0391 20.1225 18.5304 20.3333 18 20.3333H10C9.46957 20.3333 8.96086 20.1225 8.58579 19.7475C8.21071 19.3724 8 18.8637 8 18.3333V10.3333Z" stroke="#DF8BE6" stroke-width="2" stroke-linecap="round" stroke-linejoin="round"/>
</g>
</svg>
