<svg width="30" height="30" viewBox="0 0 30 30" fill="none" xmlns="http://www.w3.org/2000/svg">
<path d="M8.99998 22.2C7.50271 22.2 6.06677 21.6311 5.00804 20.6184C3.94931 19.6057 3.35452 18.2322 3.35452 16.8C3.35452 15.3679 3.94931 13.9944 5.00804 12.9817C6.06677 11.969 7.50271 11.4 8.99998 11.4C9.3536 9.82465 10.3881 8.44022 11.8759 7.5513C12.6126 7.11115 13.4384 6.8059 14.3061 6.65297C15.1739 6.50005 16.0666 6.50245 16.9333 6.66004C17.8 6.81763 18.6238 7.12731 19.3575 7.57141C20.0913 8.01552 20.7206 8.58534 21.2097 9.24835C21.6987 9.91136 22.0379 10.6546 22.2078 11.4356C22.3777 12.2165 22.3751 13.02 22.2 13.8H23.4C24.5139 13.8 25.5822 14.2425 26.3698 15.0302C27.1575 15.8178 27.6 16.8861 27.6 18C27.6 19.1139 27.1575 20.1822 26.3698 20.9699C25.5822 21.7575 24.5139 22.2 23.4 22.2H22.2" stroke="#BA02CA" stroke-width="2.4" stroke-linecap="round" stroke-linejoin="round"/>
<path d="M11.4 18.6L15 15L18.6 18.6" stroke="#BA02CA" stroke-width="2.4" stroke-linecap="round" stroke-linejoin="round"/>
<path d="M15 15V25.8" stroke="#BA02CA" stroke-width="2.4" stroke-linecap="round" stroke-linejoin="round"/>
</svg>
