<svg width="30" height="30" viewBox="0 0 30 30" fill="none" xmlns="http://www.w3.org/2000/svg">
<path d="M8.99995 22.2C7.50268 22.2 6.06674 21.6311 5.00801 20.6184C3.94928 19.6057 3.35449 18.2322 3.35449 16.8C3.35449 15.3679 3.94928 13.9944 5.00801 12.9817C6.06674 11.969 7.50268 11.4 8.99995 11.4C9.35357 9.82465 10.3881 8.44022 11.8759 7.5513C12.6125 7.11115 13.4383 6.8059 14.3061 6.65297C15.1738 6.50005 16.0666 6.50245 16.9333 6.66004C17.8 6.81763 18.6238 7.12731 19.3575 7.57141C20.0912 8.01552 20.7206 8.58534 21.2097 9.24835C21.6987 9.91136 22.0379 10.6546 22.2078 11.4356C22.3777 12.2165 22.375 13.02 22.1999 13.8H23.3999C24.5139 13.8 25.5821 14.2425 26.3698 15.0302C27.1575 15.8178 27.5999 16.8861 27.5999 18C27.5999 19.1139 27.1575 20.1822 26.3698 20.9699C25.5821 21.7575 24.5139 22.2 23.3999 22.2H22.1999" stroke="#949398" stroke-width="2.4" stroke-linecap="round" stroke-linejoin="round"/>
<path d="M11.3999 18.6L14.9999 15L18.5999 18.6" stroke="#949398" stroke-width="2.4" stroke-linecap="round" stroke-linejoin="round"/>
<path d="M15 15V25.8" stroke="#949398" stroke-width="2.4" stroke-linecap="round" stroke-linejoin="round"/>
</svg>
