<svg width="50" height="51" viewBox="0 0 50 51" fill="none" xmlns="http://www.w3.org/2000/svg">
<g id="tabler-icon-list-search">
<path id="Vector" d="M38.5418 39.0417L43.7502 44.25M8.3335 13H41.6668M8.3335 25.5H16.6668M8.3335 38H16.6668M22.9168 31.75C22.9168 33.9601 23.7948 36.0798 25.3576 37.6426C26.9204 39.2054 29.04 40.0833 31.2502 40.0833C33.4603 40.0833 35.5799 39.2054 37.1427 37.6426C38.7055 36.0798 39.5835 33.9601 39.5835 31.75C39.5835 29.5399 38.7055 27.4202 37.1427 25.8574C35.5799 24.2946 33.4603 23.4167 31.2502 23.4167C29.04 23.4167 26.9204 24.2946 25.3576 25.8574C23.7948 27.4202 22.9168 29.5399 22.9168 31.75Z" stroke="#E8E8E9" stroke-width="4" stroke-linecap="round" stroke-linejoin="round"/>
</g>
</svg>
