<svg width="24" height="25" viewBox="0 0 24 25" fill="none" xmlns="http://www.w3.org/2000/svg">
<path d="M5 7.5C5 8.56087 5.42143 9.57828 6.17157 10.3284C6.92172 11.0786 7.93913 11.5 9 11.5C10.0609 11.5 11.0783 11.0786 11.8284 10.3284C12.5786 9.57828 13 8.56087 13 7.5C13 6.43913 12.5786 5.42172 11.8284 4.67157C11.0783 3.92143 10.0609 3.5 9 3.5C7.93913 3.5 6.92172 3.92143 6.17157 4.67157C5.42143 5.42172 5 6.43913 5 7.5Z" stroke="#949398" stroke-width="2" stroke-linecap="round" stroke-linejoin="round"/>
<path d="M3 21.5V19.5C3 18.4391 3.42143 17.4217 4.17157 16.6716C4.92172 15.9214 5.93913 15.5 7 15.5H11C12.0609 15.5 13.0783 15.9214 13.8284 16.6716C14.5786 17.4217 15 18.4391 15 19.5V21.5" stroke="#949398" stroke-width="2" stroke-linecap="round" stroke-linejoin="round"/>
<path d="M16 3.62988C16.8604 3.85018 17.623 4.35058 18.1676 5.05219C18.7122 5.7538 19.0078 6.61671 19.0078 7.50488C19.0078 8.39305 18.7122 9.25596 18.1676 9.95757C17.623 10.6592 16.8604 11.1596 16 11.3799" stroke="#949398" stroke-width="2" stroke-linecap="round" stroke-linejoin="round"/>
<path d="M21 21.5004V19.5004C20.9949 18.6175 20.6979 17.7612 20.1553 17.0648C19.6126 16.3684 18.8548 15.8711 18 15.6504" stroke="#949398" stroke-width="2" stroke-linecap="round" stroke-linejoin="round"/>
</svg>
