<svg width="32" height="33" viewBox="0 0 32 33" fill="none" xmlns="http://www.w3.org/2000/svg">
<g id="tabler-icon-building-estate">
<path id="Vector" d="M4 28.3333H28M25.3333 28.3333V23M25.3333 23C26.0406 23 26.7189 22.719 27.219 22.2189C27.719 21.7188 28 21.0405 28 20.3333V17.6666C28 16.9594 27.719 16.2811 27.219 15.781C26.7189 15.2809 26.0406 15 25.3333 15C24.6261 15 23.9478 15.2809 23.4477 15.781C22.9476 16.2811 22.6667 16.9594 22.6667 17.6666V20.3333C22.6667 21.0405 22.9476 21.7188 23.4477 22.2189C23.9478 22.719 24.6261 23 25.3333 23ZM18.6667 28.3333V9.66663C18.6667 8.60576 18.2452 7.58834 17.4951 6.8382C16.7449 6.08805 15.7275 5.66663 14.6667 5.66663H9.33333C8.27247 5.66663 7.25505 6.08805 6.50491 6.8382C5.75476 7.58834 5.33333 8.60576 5.33333 9.66663V28.3333M12 23V28.3333M10.6667 17.6666H13.3333M10.6667 12.3333H13.3333" stroke="#DF8BE6" stroke-width="2.66667" stroke-linecap="round" stroke-linejoin="round"/>
</g>
</svg>
