<svg width="20" height="20" viewBox="0 0 20 20" fill="none" xmlns="http://www.w3.org/2000/svg">
<path d="M11.6001 2.80078V6.00078C11.6001 6.21295 11.6844 6.41644 11.8344 6.56647C11.9844 6.7165 12.1879 6.80078 12.4001 6.80078H15.6001" stroke="#BA02CA" stroke-width="1.6" stroke-linecap="round" stroke-linejoin="round"/>
<path d="M13.9999 17.2008H5.9999C5.57556 17.2008 5.16859 17.0322 4.86853 16.7322C4.56847 16.4321 4.3999 16.0251 4.3999 15.6008V4.40078C4.3999 3.97643 4.56847 3.56947 4.86853 3.26941C5.16859 2.96935 5.57556 2.80078 5.9999 2.80078H11.5999L15.5999 6.80078V15.6008C15.5999 16.0251 15.4313 16.4321 15.1313 16.7322C14.8312 17.0322 14.4242 17.2008 13.9999 17.2008Z" stroke="#BA02CA" stroke-width="1.6" stroke-linecap="round" stroke-linejoin="round"/>
<path d="M10 9.2002V14.0002" stroke="#BA02CA" stroke-width="1.6" stroke-linecap="round" stroke-linejoin="round"/>
<path d="M8 11.2002L10 9.2002L12 11.2002" stroke="#BA02CA" stroke-width="1.6" stroke-linecap="round" stroke-linejoin="round"/>
</svg>
