<svg width="18" height="18" viewBox="0 0 18 18" fill="none" xmlns="http://www.w3.org/2000/svg">
<path d="M9 15.75C12.7279 15.75 15.75 12.7279 15.75 9C15.75 5.27208 12.7279 2.25 9 2.25C5.27208 2.25 2.25 5.27208 2.25 9C2.25 12.7279 5.27208 15.75 9 15.75Z" stroke="#9F9AA8" stroke-width="1.5" stroke-linecap="round" stroke-linejoin="round"/>
<path d="M9.09375 12.6562C9.09375 12.708 9.05178 12.75 9 12.75C8.94822 12.75 8.90625 12.708 8.90625 12.6562C8.90625 12.6045 8.94822 12.5625 9 12.5625C9.05178 12.5625 9.09375 12.6045 9.09375 12.6562Z" fill="#9F9AA8" stroke="#9F9AA8" stroke-width="1.5"/>
<path d="M9 10.125V9.5625C9.38938 9.5625 9.77002 9.44704 10.0938 9.23071C10.4175 9.01438 10.6699 8.7069 10.8189 8.34716C10.9679 7.98742 11.0069 7.59157 10.9309 7.20967C10.855 6.82777 10.6675 6.47697 10.3921 6.20163C10.1168 5.9263 9.76598 5.73879 9.38408 5.66283C9.00218 5.58687 8.60633 5.62585 8.24659 5.77486C7.88685 5.92387 7.57937 6.17621 7.36304 6.49997C7.14672 6.82373 7.03125 7.20437 7.03125 7.59375" stroke="#9F9AA8" stroke-width="1.5" stroke-linecap="round" stroke-linejoin="round"/>
</svg>
