<svg width="48" height="49" viewBox="0 0 48 49" fill="none" xmlns="http://www.w3.org/2000/svg">
<g id="tabler-icon-circle-2-filled">
<path id="Vector" d="M24 4.33325C35.046 4.33325 44 13.2873 44 24.3333C44 35.3793 35.046 44.3333 24 44.3333C12.954 44.3333 4 35.3793 4 24.3333C4 13.2873 12.954 4.33325 24 4.33325ZM26 14.3333H20L19.766 14.3473C19.2799 14.4051 18.8319 14.6392 18.5068 15.0052C18.1818 15.3712 18.0022 15.8437 18.0022 16.3333C18.0022 16.8228 18.1818 17.2953 18.5068 17.6613C18.8319 18.0273 19.2799 18.2614 19.766 18.3193L20 18.3333H26V22.3333H22L21.7 22.3433C20.7477 22.4148 19.8523 22.8248 19.1759 23.499C18.4995 24.1732 18.0867 25.0671 18.012 26.0193L18 26.3333V30.3333L18.01 30.6333C18.0816 31.5856 18.4915 32.4809 19.1657 33.1573C19.8399 33.8337 20.7339 34.2466 21.686 34.3213L22 34.3333H28L28.234 34.3193C28.7201 34.2614 29.1681 34.0273 29.4932 33.6613C29.8182 33.2953 29.9978 32.8228 29.9978 32.3333C29.9978 31.8437 29.8182 31.3712 29.4932 31.0052C29.1681 30.6392 28.7201 30.4051 28.234 30.3473L28 30.3333H22V26.3333H26L26.3 26.3233C27.2523 26.2517 28.1477 25.8417 28.8241 25.1675C29.5005 24.4933 29.9133 23.5994 29.988 22.6473L30 22.3333V18.3333L29.99 18.0333C29.9184 17.0809 29.5085 16.1856 28.8343 15.5092C28.1601 14.8328 27.2661 14.4199 26.314 14.3453L26 14.3333Z" fill="#BA02C9"/>
</g>
</svg>
