<svg width="125" height="74" viewBox="0 0 125 74" fill="none" xmlns="http://www.w3.org/2000/svg">
<path d="M35.4459 26.9945C35.4459 28.5204 35.6109 29.7576 35.8996 30.6649C36.2295 31.5722 36.6419 32.562 37.2193 33.6343C37.4255 33.9642 37.508 34.2941 37.508 34.5828C37.508 34.9952 37.2605 35.4076 36.7244 35.82L34.1262 37.5522C33.7551 37.7996 33.3839 37.9233 33.054 37.9233C32.6415 37.9233 32.2291 37.7171 31.8167 37.346C31.2394 36.7273 30.7445 36.0675 30.3321 35.4076C29.9196 34.7065 29.5072 33.9229 29.0536 32.9744C25.8368 36.7686 21.7952 38.6657 16.9287 38.6657C13.4645 38.6657 10.7013 37.6759 8.68054 35.6963C6.65973 33.7167 5.62871 31.0773 5.62871 27.778C5.62871 24.2725 6.86594 21.4269 9.38164 19.2824C11.8973 17.1378 15.2379 16.0656 19.4857 16.0656C20.8879 16.0656 22.3313 16.1893 23.8572 16.3955C25.3831 16.6017 26.9503 16.9316 28.5999 17.3028V14.2922C28.5999 11.1579 27.9401 8.97212 26.6616 7.69365C25.3419 6.41518 23.1149 5.79656 19.9393 5.79656C18.4959 5.79656 17.0112 5.96152 15.4853 6.33269C13.9594 6.70386 12.4747 7.15751 11.0313 7.73489C10.3714 8.02358 9.87653 8.18854 9.58784 8.27102C9.29915 8.3535 9.09295 8.39474 8.92798 8.39474C8.35061 8.39474 8.06192 7.98233 8.06192 7.11627V5.09546C8.06192 4.43561 8.14441 3.94071 8.35061 3.65203C8.55682 3.36334 8.92798 3.07465 9.50536 2.78596C10.9488 2.04363 12.6809 1.42501 14.7017 0.930118C16.7225 0.393985 18.8671 0.146538 21.1353 0.146538C26.043 0.146538 29.631 1.26005 31.9405 3.48706C34.2087 5.71408 35.3635 9.09584 35.3635 13.6324V26.9945H35.4459ZM18.7021 33.2631C20.063 33.2631 21.4652 33.0156 22.9499 32.5208C24.4346 32.0259 25.7543 31.1186 26.8678 29.8813C27.5277 29.0977 28.0226 28.2317 28.27 27.2419C28.5175 26.2521 28.6824 25.0561 28.6824 23.6539V21.9218C27.4864 21.6331 26.208 21.3857 24.8882 21.2207C23.5685 21.0557 22.2901 20.9733 21.0116 20.9733C18.2484 20.9733 16.2276 21.5094 14.8667 22.6229C13.5057 23.7364 12.8459 25.3036 12.8459 27.3656C12.8459 29.3039 13.3408 30.7474 14.3718 31.7372C15.3616 32.7682 16.805 33.2631 18.7021 33.2631ZM51.8186 37.7171C51.0763 37.7171 50.5814 37.5934 50.2514 37.3047C49.9215 37.0573 49.6328 36.4799 49.3854 35.6963L39.6938 3.81699C39.4463 2.99217 39.3226 2.45604 39.3226 2.16735C39.3226 1.50749 39.6525 1.13632 40.3124 1.13632H44.354C45.1376 1.13632 45.6737 1.26005 45.9624 1.54873C46.2923 1.79618 46.5398 2.37355 46.7872 3.15713L53.7157 30.4587L60.1493 3.15713C60.3555 2.33231 60.6029 1.79618 60.9329 1.54873C61.2628 1.30129 61.8402 1.13632 62.5825 1.13632H65.8818C66.6653 1.13632 67.2015 1.26005 67.5314 1.54873C67.8613 1.79618 68.15 2.37355 68.315 3.15713L74.8311 30.7886L81.9657 3.15713C82.2132 2.33231 82.5019 1.79618 82.7906 1.54873C83.1205 1.30129 83.6566 1.13632 84.399 1.13632H88.2344C88.8942 1.13632 89.2654 1.46625 89.2654 2.16735C89.2654 2.37355 89.2242 2.57976 89.1829 2.82721C89.1417 3.07465 89.0592 3.40458 88.8942 3.85823L78.9552 35.7375C78.7077 36.5624 78.419 37.0985 78.0891 37.346C77.7592 37.5934 77.223 37.7584 76.5219 37.7584H72.9752C72.1916 37.7584 71.6555 37.6346 71.3256 37.346C70.9956 37.0573 70.707 36.5211 70.542 35.6963L64.1497 9.09584L57.7985 35.6551C57.5923 36.4799 57.3449 37.016 57.015 37.3047C56.685 37.5934 56.1077 37.7171 55.3653 37.7171H51.8186ZM104.813 38.8306C102.669 38.8306 100.524 38.5832 98.4621 38.0883C96.4001 37.5934 94.7917 37.0573 93.7194 36.4386C93.0596 36.0675 92.6059 35.6551 92.441 35.2839C92.276 34.9127 92.1935 34.5003 92.1935 34.1291V32.0259C92.1935 31.1598 92.5234 30.7474 93.1421 30.7474C93.3895 30.7474 93.637 30.7886 93.8844 30.8711C94.1318 30.9536 94.503 31.1186 94.9154 31.2835C96.3176 31.9021 97.8435 32.397 99.4519 32.727C101.102 33.0569 102.71 33.2218 104.36 33.2218C106.958 33.2218 108.979 32.7682 110.381 31.8609C111.783 30.9536 112.525 29.6339 112.525 27.943C112.525 26.7882 112.154 25.8397 111.412 25.0561C110.669 24.2725 109.267 23.5714 107.246 22.9116L101.267 21.0557C98.2559 20.1072 96.0289 18.705 94.668 16.8492C93.307 15.0346 92.6059 13.0137 92.6059 10.8692C92.6059 9.13708 92.9771 7.61117 93.7194 6.29145C94.4618 4.97174 95.4516 3.81699 96.6888 2.90969C97.926 1.96114 99.3282 1.26005 100.978 0.765154C102.627 0.270262 104.36 0.0640564 106.174 0.0640564C107.082 0.0640564 108.03 0.105297 108.937 0.229021C109.886 0.352744 110.752 0.517708 111.618 0.682672C112.443 0.888877 113.226 1.09508 113.969 1.34253C114.711 1.58997 115.288 1.83742 115.701 2.08487C116.278 2.4148 116.691 2.74472 116.938 3.11589C117.186 3.44582 117.309 3.89947 117.309 4.47685V6.41517C117.309 7.28124 116.979 7.73489 116.361 7.73489C116.031 7.73489 115.495 7.56992 114.794 7.24C112.443 6.16773 109.803 5.6316 106.875 5.6316C104.525 5.6316 102.669 6.00276 101.39 6.78634C100.112 7.56992 99.4519 8.76591 99.4519 10.4568C99.4519 11.6115 99.8643 12.6013 100.689 13.3849C101.514 14.1685 103.04 14.9521 105.226 15.6532L111.082 17.509C114.051 18.4576 116.196 19.7773 117.474 21.4682C118.753 23.159 119.371 25.0974 119.371 27.2419C119.371 29.0153 119 30.6237 118.299 32.0259C117.557 33.4281 116.567 34.6653 115.288 35.6551C114.01 36.6861 112.484 37.4284 110.711 37.9646C108.855 38.5419 106.917 38.8306 104.813 38.8306Z" fill="#252F3E"/>
<path fill-rule="evenodd" clip-rule="evenodd" d="M112.606 58.5943C99.0379 68.6159 79.3247 73.9359 62.3747 73.9359C38.6199 73.9359 17.2158 65.1516 1.04935 50.5523C-0.229118 49.3975 0.925629 47.8304 2.45155 48.7377C19.9377 58.883 41.5067 65.0279 63.8181 65.0279C78.8711 65.0279 95.4087 61.8936 110.627 55.46C112.895 54.4289 114.833 56.9446 112.606 58.5943Z" fill="#FF9900"/>
<path fill-rule="evenodd" clip-rule="evenodd" d="M118.257 52.1599C116.524 49.9329 106.792 51.0877 102.379 51.6238C101.059 51.7888 100.853 50.634 102.049 49.7679C109.802 44.3241 122.546 45.8913 124.03 47.7059C125.515 49.5617 123.618 62.3052 116.359 68.4089C115.246 69.3574 114.174 68.8625 114.669 67.6253C116.318 63.5424 119.989 54.3457 118.257 52.1599Z" fill="#FF9900"/>
</svg>
