<svg width="239" height="90" viewBox="0 0 239 90" fill="none" xmlns="http://www.w3.org/2000/svg">
  <rect x="1.80371" y="1" width="236.106" height="88" rx="13.283" fill="white"/>
  <rect x="1.3056" y="0.501887" width="237.102" height="88.9962" rx="13.7811" stroke="#DF8BE6" stroke-opacity="0.5" stroke-width="0.996226"/>
  <g filter="url(#filter0_ii_805_6805)">
    <path d="M25.3684 23.2838C24.8582 23.8258 24.5566 24.6671 24.5566 25.7566V64.6807C24.5566 65.7719 24.8582 66.6114 25.3684 67.1535L25.4981 67.2802L47.2179 45.4756V45.2186V44.9617L25.4981 23.1553L25.3684 23.2838Z" fill="url(#paint0_linear_805_6805)"/>
    <path d="M54.4566 52.7459L47.2178 45.4753V45.2184V44.9614L54.4583 37.6926L54.6214 37.7859L63.1996 42.6787C65.6487 44.0761 65.6487 46.3624 63.1996 47.7616L54.6214 52.6544L54.4566 52.7459Z" fill="url(#paint1_linear_805_6805)"/>
    <g filter="url(#filter1_i_805_6805)">
      <path d="M54.6213 52.6525L47.216 45.2183L25.3682 67.1531C26.1746 68.012 27.5088 68.1176 29.0112 67.2623L54.6213 52.6525Z" fill="url(#paint2_linear_805_6805)"/>
    </g>
    <path d="M54.6213 37.7845L29.0112 23.1765C27.5088 22.3193 26.1746 22.4267 25.3682 23.2856L47.2178 45.2205L54.6213 37.7845Z" fill="url(#paint3_linear_805_6805)"/>
  </g>
  <path d="M120.124 47.3482C116.23 47.3482 113.055 50.3089 113.055 54.3867C113.055 58.4397 116.23 61.4253 120.124 61.4253C124.02 61.4253 127.194 58.4397 127.194 54.3867C127.193 50.3089 124.018 47.3482 120.124 47.3482ZM120.124 58.6549C117.99 58.6549 116.15 56.8956 116.15 54.3884C116.15 51.8546 117.991 50.1219 120.124 50.1219C122.258 50.1219 124.098 51.8546 124.098 54.3884C124.098 56.894 122.258 58.6549 120.124 58.6549ZM104.702 47.3482C100.807 47.3482 97.6332 50.3089 97.6332 54.3867C97.6332 58.4397 100.807 61.4253 104.702 61.4253C108.598 61.4253 111.772 58.4397 111.772 54.3867C111.772 50.3089 108.598 47.3482 104.702 47.3482ZM104.702 58.6549C102.568 58.6549 100.728 56.8956 100.728 54.3884C100.728 51.8546 102.569 50.1219 104.702 50.1219C106.836 50.1219 108.676 51.8546 108.676 54.3884C108.677 56.894 106.836 58.6549 104.702 58.6549ZM86.3589 49.5095V52.4951H93.5086C93.295 54.1749 92.7354 55.4012 91.881 56.2535C90.8411 57.2928 89.2135 58.4397 86.3589 58.4397C81.9578 58.4397 78.517 54.8931 78.517 50.4943C78.517 46.0954 81.9578 42.5488 86.3589 42.5488C88.7333 42.5488 90.4669 43.4822 91.7469 44.682L93.8547 42.5753C92.0664 40.869 89.6937 39.5632 86.3589 39.5632C80.3301 39.5632 75.2617 44.4685 75.2617 50.4943C75.2617 56.52 80.3301 61.4253 86.3589 61.4253C89.6125 61.4253 92.0681 60.3578 93.9872 58.3586C95.9609 56.3859 96.5752 53.6122 96.5752 51.373C96.5752 50.6813 96.5222 50.0408 96.4146 49.5079L86.3589 49.5095ZM161.38 51.8282C160.794 50.2559 159.005 47.3482 155.351 47.3482C151.723 47.3482 148.708 50.2013 148.708 54.3867C148.708 58.3322 151.697 61.4253 155.697 61.4253C158.924 61.4253 160.792 59.4526 161.567 58.3057L159.166 56.7053C158.366 57.8787 157.272 58.6516 155.697 58.6516C154.124 58.6516 153.003 57.9316 152.283 56.5183L161.699 52.6258L161.38 51.8282ZM151.776 54.1749C151.697 51.4541 153.884 50.0689 155.459 50.0689C156.686 50.0689 157.725 50.6829 158.073 51.5617L151.776 54.1749ZM144.121 60.9999H147.214V40.3113H144.121V60.9999ZM139.051 48.922H138.945C138.252 48.0946 136.917 47.3482 135.238 47.3482C131.716 47.3482 128.489 50.4413 128.489 54.4149C128.489 58.3603 131.716 61.4269 135.238 61.4269C136.919 61.4269 138.252 60.6805 138.945 59.8282H139.051V60.8411C139.051 63.5337 137.611 64.9735 135.291 64.9735C133.397 64.9735 132.223 63.6148 131.743 62.4679L129.049 63.5883C129.822 65.4534 131.875 67.7472 135.291 67.7472C138.919 67.7472 141.987 65.614 141.987 60.4141V47.7768H139.053L139.051 48.922ZM135.505 58.6549C133.37 58.6549 131.584 56.8675 131.584 54.4149C131.584 51.9341 133.37 50.1219 135.505 50.1219C137.611 50.1219 139.265 51.9341 139.265 54.4149C139.265 56.8675 137.611 58.6549 135.505 58.6549ZM175.875 40.3113H168.472V60.9999H171.56V53.162H175.873C179.297 53.162 182.665 50.6846 182.665 46.7375C182.665 42.7904 179.299 40.3113 175.875 40.3113ZM175.954 50.2824H171.56V43.1909H175.954C178.264 43.1909 179.575 45.1024 179.575 46.7375C179.575 48.3395 178.264 50.2824 175.954 50.2824ZM195.049 47.3118C192.812 47.3118 190.495 48.2965 189.537 50.4794L192.279 51.6229C192.865 50.4794 193.958 50.1053 195.102 50.1053C196.7 50.1053 198.324 51.0636 198.351 52.7665V52.98C197.791 52.6606 196.592 52.1823 195.128 52.1823C192.173 52.1823 189.162 53.8058 189.162 56.8394C189.162 59.6081 191.587 61.3905 194.302 61.3905C196.378 61.3905 197.524 60.4588 198.243 59.3665H198.349V60.9635H201.333V53.0313C201.334 49.3606 198.589 47.3118 195.049 47.3118ZM194.675 58.6499C193.665 58.6499 192.252 58.1435 192.252 56.8923C192.252 55.2953 194.011 54.683 195.529 54.683C196.885 54.683 197.526 54.9759 198.351 55.3747C198.11 57.2928 196.46 58.6499 194.675 58.6499ZM212.198 47.7636L208.656 56.7335H208.55L204.874 47.7636H201.546L207.058 60.2999L203.916 67.2739H207.138L215.634 47.7636H212.198ZM184.371 60.9999H187.459V40.3113H184.371V60.9999Z" fill="#090909"/>
  <path d="M85.9736 28.0741C85.9736 29.4358 85.5633 30.5196 84.7411 31.3289C83.8081 32.2909 82.5905 32.7719 81.095 32.7719C79.6623 32.7719 78.4431 32.2844 77.4423 31.3094C76.4397 30.3328 75.9385 29.1238 75.9385 27.6808C75.9385 26.2362 76.4397 25.0272 77.4423 24.0522C78.4431 23.0756 79.6623 22.5881 81.095 22.5881C81.8063 22.5881 82.4863 22.7246 83.1314 22.996C83.7783 23.269 84.2961 23.6314 84.6832 24.0847L83.8114 24.9427C83.1546 24.1709 82.2497 23.7857 81.0933 23.7857C80.0478 23.7857 79.1445 24.1465 78.3819 24.868C77.6193 25.5895 77.2388 26.5271 77.2388 27.6792C77.2388 28.8313 77.6193 29.7689 78.3819 30.4904C79.1445 31.2119 80.0478 31.5726 81.0933 31.5726C82.2017 31.5726 83.1265 31.2103 83.866 30.4839C84.3457 30.011 84.6236 29.3529 84.6981 28.5096H81.0933V27.3379H85.9024C85.9521 27.5931 85.9736 27.8384 85.9736 28.0741Z" fill="#090909"/>
  <path d="M93.6001 24.002H89.0805V27.0927H93.1568V28.2643H89.0805V31.355H93.6001V32.5542H87.805V22.8043H93.6001V24.002Z" fill="#090909"/>
  <path d="M98.9781 32.5542H97.7026V24.002H94.93V22.8043H101.751V24.002H98.9781V32.5542Z" fill="#090909"/>
  <path d="M106.686 32.5542V22.8043H107.961V32.5542H106.686Z" fill="#090909"/>
  <path d="M113.617 32.5542H112.342V24.002H109.569V22.8043H116.39V24.002H113.617V32.5542Z" fill="#090909"/>
  <path d="M129.302 31.2948C128.326 32.2796 127.113 32.7719 125.662 32.7719C124.211 32.7719 122.999 32.2796 122.024 31.2948C121.048 30.3101 120.562 29.1044 120.562 27.6793C120.562 26.2542 121.048 25.0484 122.024 24.0637C122.999 23.079 124.211 22.585 125.662 22.585C127.105 22.585 128.316 23.0806 129.295 24.0702C130.274 25.0598 130.764 26.2623 130.764 27.6793C130.764 29.1044 130.276 30.3101 129.302 31.2948ZM122.966 30.4775C123.7 31.2087 124.598 31.5727 125.662 31.5727C126.726 31.5727 127.626 31.2071 128.359 30.4775C129.093 29.7462 129.462 28.8135 129.462 27.6793C129.462 26.545 129.093 25.6123 128.359 24.8811C127.626 24.1498 126.726 23.7858 125.662 23.7858C124.598 23.7858 123.7 24.1514 122.966 24.8811C122.233 25.6123 121.864 26.545 121.864 27.6793C121.864 28.8135 122.233 29.7462 122.966 30.4775Z" fill="#090909"/>
  <path d="M132.554 32.5542V22.8043H134.106L138.93 30.3881H138.984L138.93 28.5096V22.8043H140.205V32.5542H138.873L133.826 24.6016H133.772L133.826 26.48V32.5542H132.554Z" fill="#090909"/>
  <path d="M85.9736 28.0741C85.9736 29.4358 85.5633 30.5196 84.7411 31.3289C83.8081 32.2909 82.5905 32.7719 81.095 32.7719C79.6623 32.7719 78.4431 32.2844 77.4423 31.3094C76.4397 30.3328 75.9385 29.1238 75.9385 27.6808C75.9385 26.2362 76.4397 25.0272 77.4423 24.0522C78.4431 23.0756 79.6623 22.5881 81.095 22.5881C81.8063 22.5881 82.4863 22.7246 83.1314 22.996C83.7783 23.269 84.2961 23.6314 84.6832 24.0847L83.8114 24.9427C83.1546 24.1709 82.2497 23.7857 81.0933 23.7857C80.0478 23.7857 79.1445 24.1465 78.3819 24.868C77.6193 25.5895 77.2388 26.5271 77.2388 27.6792C77.2388 28.8313 77.6193 29.7689 78.3819 30.4904C79.1445 31.2119 80.0478 31.5726 81.0933 31.5726C82.2017 31.5726 83.1265 31.2103 83.866 30.4839C84.3457 30.011 84.6236 29.3529 84.6981 28.5096H81.0933V27.3379H85.9024C85.9521 27.5931 85.9736 27.8384 85.9736 28.0741Z" stroke="white" stroke-width="0.0679132" stroke-miterlimit="10"/>
  <path d="M93.6001 24.002H89.0805V27.0927H93.1568V28.2643H89.0805V31.355H93.6001V32.5542H87.805V22.8043H93.6001V24.002Z" stroke="white" stroke-width="0.0679132" stroke-miterlimit="10"/>
  <path d="M98.9781 32.5542H97.7026V24.002H94.93V22.8043H101.751V24.002H98.9781V32.5542Z" stroke="white" stroke-width="0.0679132" stroke-miterlimit="10"/>
  <path d="M106.686 32.5542V22.8043H107.961V32.5542H106.686Z" stroke="white" stroke-width="0.0679132" stroke-miterlimit="10"/>
  <path d="M113.617 32.5542H112.342V24.002H109.569V22.8043H116.39V24.002H113.617V32.5542Z" stroke="white" stroke-width="0.0679132" stroke-miterlimit="10"/>
  <path d="M129.302 31.2948C128.326 32.2796 127.113 32.7719 125.662 32.7719C124.211 32.7719 122.999 32.2796 122.024 31.2948C121.048 30.3101 120.562 29.1044 120.562 27.6793C120.562 26.2542 121.048 25.0484 122.024 24.0637C122.999 23.079 124.211 22.585 125.662 22.585C127.105 22.585 128.316 23.0806 129.295 24.0702C130.274 25.0598 130.764 26.2623 130.764 27.6793C130.764 29.1044 130.276 30.3101 129.302 31.2948ZM122.966 30.4775C123.7 31.2087 124.598 31.5727 125.662 31.5727C126.726 31.5727 127.626 31.2071 128.359 30.4775C129.093 29.7462 129.462 28.8135 129.462 27.6793C129.462 26.545 129.093 25.6123 128.359 24.8811C127.626 24.1498 126.726 23.7858 125.662 23.7858C124.598 23.7858 123.7 24.1514 122.966 24.8811C122.233 25.6123 121.864 26.545 121.864 27.6793C121.864 28.8135 122.233 29.7462 122.966 30.4775Z" stroke="white" stroke-width="0.0679132" stroke-miterlimit="10"/>
  <path d="M132.554 32.5542V22.8043H134.106L138.93 30.3881H138.984L138.93 28.5096V22.8043H140.205V32.5542H138.873L133.826 24.6016H133.772L133.826 26.48V32.5542H132.554Z" stroke="white" stroke-width="0.0679132" stroke-miterlimit="10"/>
  <defs>
    <filter id="filter0_ii_805_6805" x="24.5566" y="22.585" width="40.4795" height="45.2681" filterUnits="userSpaceOnUse" color-interpolation-filters="sRGB">
      <feFlood flood-opacity="0" result="BackgroundImageFix"/>
      <feBlend mode="normal" in="SourceGraphic" in2="BackgroundImageFix" result="shape"/>
      <feColorMatrix in="SourceAlpha" type="matrix" values="0 0 0 0 0 0 0 0 0 0 0 0 0 0 0 0 0 0 127 0" result="hardAlpha"/>
      <feOffset dy="-0.264"/>
      <feComposite in2="hardAlpha" operator="arithmetic" k2="-1" k3="1"/>
      <feColorMatrix type="matrix" values="0 0 0 0 0 0 0 0 0 0 0 0 0 0 0 0 0 0 0.12 0"/>
      <feBlend mode="normal" in2="shape" result="effect1_innerShadow_805_6805"/>
      <feColorMatrix in="SourceAlpha" type="matrix" values="0 0 0 0 0 0 0 0 0 0 0 0 0 0 0 0 0 0 127 0" result="hardAlpha"/>
      <feOffset dy="0.264"/>
      <feComposite in2="hardAlpha" operator="arithmetic" k2="-1" k3="1"/>
      <feColorMatrix type="matrix" values="0 0 0 0 1 0 0 0 0 1 0 0 0 0 1 0 0 0 0.25 0"/>
      <feBlend mode="normal" in2="effect1_innerShadow_805_6805" result="effect2_innerShadow_805_6805"/>
    </filter>
    <filter id="filter1_i_805_6805" x="25.3682" y="45.2183" width="29.2529" height="22.6348" filterUnits="userSpaceOnUse" color-interpolation-filters="sRGB">
      <feFlood flood-opacity="0" result="BackgroundImageFix"/>
      <feBlend mode="normal" in="SourceGraphic" in2="BackgroundImageFix" result="shape"/>
      <feColorMatrix in="SourceAlpha" type="matrix" values="0 0 0 0 0 0 0 0 0 0 0 0 0 0 0 0 0 0 127 0" result="hardAlpha"/>
      <feOffset dy="-0.264"/>
      <feComposite in2="hardAlpha" operator="arithmetic" k2="-1" k3="1"/>
      <feColorMatrix type="matrix" values="0 0 0 0 0 0 0 0 0 0 0 0 0 0 0 0 0 0 0.08 0"/>
      <feBlend mode="normal" in2="shape" result="effect1_innerShadow_805_6805"/>
    </filter>
    <linearGradient id="paint0_linear_805_6805" x1="45.2926" y1="25.3447" x2="15.7565" y2="54.766" gradientUnits="userSpaceOnUse">
      <stop stop-color="#00A0FF"/>
      <stop offset="0.0066" stop-color="#00A1FF"/>
      <stop offset="0.2601" stop-color="#00BEFF"/>
      <stop offset="0.5122" stop-color="#00D2FF"/>
      <stop offset="0.7604" stop-color="#00DFFF"/>
      <stop offset="1" stop-color="#00E3FF"/>
    </linearGradient>
    <linearGradient id="paint1_linear_805_6805" x1="66.3877" y1="45.2184" x2="23.9685" y2="45.2184" gradientUnits="userSpaceOnUse">
      <stop stop-color="#FFE000"/>
      <stop offset="0.4087" stop-color="#FFBD00"/>
      <stop offset="0.7754" stop-color="#FFA500"/>
      <stop offset="1" stop-color="#FF9C00"/>
    </linearGradient>
    <linearGradient id="paint2_linear_805_6805" x1="50.5998" y1="49.2555" x2="10.5451" y2="89.1545" gradientUnits="userSpaceOnUse">
      <stop stop-color="#FF3A44"/>
      <stop offset="1" stop-color="#C31162"/>
    </linearGradient>
    <linearGradient id="paint3_linear_805_6805" x1="19.8657" y1="10.3281" x2="37.7512" y2="28.1441" gradientUnits="userSpaceOnUse">
      <stop stop-color="#32A071"/>
      <stop offset="0.0685" stop-color="#2DA771"/>
      <stop offset="0.4762" stop-color="#15CF74"/>
      <stop offset="0.8009" stop-color="#06E775"/>
      <stop offset="1" stop-color="#00F076"/>
    </linearGradient>
  </defs>
</svg>