<svg width="125" height="74" viewBox="0 0 125 74" fill="none" xmlns="http://www.w3.org/2000/svg">
<g clip-path="url(#clip0_35_17125)">
<path d="M63.4843 5.08764L63.9038 7.95801H69.7134L68.0325 0.259293H60.2649L55.507 7.95801H61.8754L63.4843 5.08764ZM69.7823 20.3442L67.6131 10.0568H61.8035L62.2244 12.9257H58.0957L59.7751 10.0568H53.4067L47.1072 20.3442H53.9654L55.4351 17.6851H62.9945L63.4139 20.3442H69.7823ZM87.8389 19.0843C89.8672 18.2454 91.4073 16.9855 92.4575 15.4455C93.5077 13.9054 94.0664 12.1572 94.0664 10.0568H87.4194C87.4194 10.2666 87.4883 10.4074 87.4883 10.6171C87.4883 12.0868 86.9984 13.2058 85.9498 14.0463C84.8996 14.8852 83.5693 15.3062 81.8899 15.3062H79.3701L80.4203 10.0568H73.9815L71.8827 20.3442H80.7004C83.43 20.3442 85.8089 19.9248 87.8389 19.0843ZM83.0794 5.29737H85.6666C86.9984 5.29737 87.9782 5.57752 88.6074 6.06739C89.0972 6.48838 89.4463 7.11756 89.5167 7.95801H96.1652V7.88759C96.1652 5.36779 95.3263 3.4787 93.7158 2.14838C92.1069 0.888478 89.7264 0.188873 86.507 0.188873H77.6892L76.0818 7.95801H82.4502L83.0779 5.29737H83.0794ZM105.823 13.9054L109.04 10.0568H97.8431L99.3831 13.6268L97.9824 20.3442H104.492L105.82 13.9054H105.823ZM111.142 7.95801L117.718 0.259293H110.719L105.611 6.62769L103.161 0.259293H96.4438L99.9434 7.95801H111.14H111.142ZM18.6943 4.7386H21.4943C22.4036 4.7386 23.1032 4.87791 23.4538 5.08764C23.8732 5.29737 24.0125 5.71835 24.0125 6.27712C24.0125 7.11756 23.5931 7.67786 22.7526 7.95801H29.8222C30.0319 7.32729 30.1712 6.62769 30.1712 5.85766C30.1712 4.10789 29.542 2.70868 28.2117 1.72892C26.8814 0.74917 25.1331 0.259293 22.8935 0.259293H13.3746L12.4637 4.7386H18.6928H18.6943ZM50.9573 0.259293H34.724L33.7442 4.80749H50.0495L50.9588 0.259293H50.9573ZM41.8594 8.65761L42.0691 7.67786H33.3217L33.112 8.65761L32.4124 12.1556H41.1598L41.8594 8.65761ZM46.3371 15.796H29.8191L28.9113 20.3442H45.4263L46.3371 15.796ZM37.5209 41.1992H28.423L29.4731 36.0907H22.9639L20.8651 46.3781H36.4707L37.5209 41.1992ZM25.0627 33.9904H31.5704L33.1105 26.2932H26.6717L25.0627 33.9904ZM46.9005 43.719H54.3864L54.8763 46.3781H61.2447L59.0066 36.0907H53.2674L53.6868 38.9595H49.5581L51.1685 36.0907H44.869L38.5711 46.3781H45.4293L46.899 43.719H46.9005ZM51.7258 26.2932L46.9663 33.9904H53.2658L54.8748 31.1215L55.3646 33.9904H61.1039L59.4934 26.2932H51.7258ZM66.2139 39.6591L64.8147 46.3781H71.3239L72.6527 39.9393L75.8721 36.0907H64.6049L66.2139 39.6591ZM77.5515 26.2932L72.4414 32.6616L69.9921 26.2932H63.2746L66.7038 33.9904H77.9709L84.549 26.2932H77.5515ZM14.0068 30.4923C14.9177 30.4923 15.6173 30.6316 15.9663 30.8414C16.3858 31.0511 16.5266 31.4017 16.5266 31.962C16.5266 33.2907 15.5469 33.9215 13.5169 33.9904H22.3347C22.6853 33.2219 22.8246 32.311 22.8246 31.3312C22.8246 29.5126 22.1954 28.1118 21.0059 27.2025C19.746 26.2932 17.9258 25.8033 15.4764 25.8033H6.44894L5.46918 30.4923H14.0068ZM20.3048 36.0907H2.66923L0.5 46.3781H6.72909L7.91857 40.8486H10.6481C13.7971 40.8486 16.2465 40.2194 18.0651 38.8891C19.0536 38.1788 19.8283 37.2108 20.3048 36.0907ZM14.7753 14.4657H17.8539L20.2328 20.4147H27.0911L23.8717 13.486C25.202 12.9257 26.2522 12.1556 26.9518 11.1759C27.2319 10.8268 27.4417 10.4074 27.581 9.9864H9.59639L7.49605 20.3442H13.5154L14.7753 14.4657ZM103.094 26.3636H86.7887L85.8794 30.9103H102.114L103.094 26.3636ZM84.4786 38.5401H93.2275L94.0664 34.0608H85.3191L84.4786 38.5401ZM81.0495 46.447H97.566L98.4753 41.8988H81.9603L81.0495 46.447ZM121.989 27.7628C120.659 26.783 118.911 26.2932 116.671 26.2932H107.152L106.243 30.7725H115.27C116.181 30.7725 116.881 30.9118 117.23 31.1215C117.651 31.3312 117.79 31.7522 117.79 32.311C117.79 33.1514 117.371 33.7117 116.53 33.9904H123.598C123.828 33.3143 123.946 32.6055 123.949 31.8915C123.949 30.1418 123.249 28.7426 121.989 27.7628ZM120.729 37.1409C121.007 36.784 121.22 36.3814 121.359 35.9514H103.374L101.274 46.3766H107.293L108.551 40.4292H111.632L114.011 46.3781H120.869L117.649 39.4494C118.98 38.8891 120.03 38.1206 120.729 37.1409ZM44.9364 58.2745H61.1727L62.1525 53.6558H45.8473L44.9364 58.2745ZM53.1265 61.3546H44.3792L43.4683 65.8323H52.2172L53.1265 61.3546ZM40.1111 73.7408H56.5572L57.5369 69.1926H41.0204L40.1111 73.7408ZM17.785 61.3546H28.2117L26.393 53.6558H19.3939L17.785 61.3546ZM43.1897 53.6558H35.7726L30.8035 61.3546H41.6512L43.1897 53.6558ZM26.814 66.4631L26.1144 63.4534H15.6862L13.5889 73.7408H19.397L21.2172 65.0623L23.1047 73.7408H27.7938L33.3217 64.8526L31.5031 73.7408H37.4505L39.5508 63.4534H28.7031L26.814 66.4631Z" fill="black"/>
</g>
<defs>
<clipPath id="clip0_35_17125">
<rect width="124" height="73.4815" fill="white" transform="translate(0.5 0.259277)"/>
</clipPath>
</defs>
</svg>
