<svg width="732" height="732" viewBox="0 0 732 732" fill="none" xmlns="http://www.w3.org/2000/svg">
<g opacity="0.1">
<path fill-rule="evenodd" clip-rule="evenodd" d="M101.144 111.781C158.49 52.6265 223.037 18.253 304.121 3.5976C330.526 -1.19867 397.474 -1.19867 427.614 3.5976C549.773 23.3158 655.129 106.185 704.473 221.297C709.808 233.554 717.543 257.269 722.077 274.056C729.278 300.969 730.345 310.295 731.679 351.863C732.479 388.901 731.946 404.889 728.212 426.472C720.21 474.169 701.272 523.731 675.667 563.966L666.598 578.089L674.6 635.112C679.134 666.554 682.068 692.667 681.535 693.467C680.735 694 655.663 689.203 625.79 682.808L571.378 671.084L551.107 682.808C491.628 717.448 418.279 735.035 348.13 731.571C255.577 727.041 172.092 689.736 106.745 624.453C54.4673 572.493 22.1937 512.539 6.19026 438.463C-1.54473 402.757 -2.07818 332.678 4.85664 297.238C18.993 225.827 51.8 162.942 101.144 111.781ZM508.431 217.3C479.625 190.387 439.35 169.87 401.475 163.208C382.538 159.744 352.931 158.945 341.462 161.076C300.653 169.603 279.849 177.064 256.644 191.986L243.841 200.246L203.833 187.723C181.695 180.528 163.291 175.465 163.024 175.998C162.49 176.265 169.425 193.851 177.96 214.635L193.697 252.473L183.028 274.589C165.958 308.963 160.357 335.076 161.957 373.979C163.024 399.293 164.891 410.484 170.492 427.272C194.231 497.084 248.375 547.446 318.791 564.766C337.728 569.562 346.263 570.361 374.803 569.029C411.344 567.43 429.214 563.167 457.754 548.512C480.158 537.32 487.36 531.991 507.898 512.539C580.713 443.526 592.449 335.875 536.437 251.673C528.435 239.683 515.899 224.228 508.431 217.3ZM268.112 322.019C268.112 286.313 289.183 262.598 330.259 251.406C348.396 246.61 398.007 246.344 420.678 251.406C443.35 255.936 462.821 264.463 462.821 269.526C462.821 271.657 458.02 278.319 452.152 284.181C437.482 299.369 419.345 304.699 392.939 300.968C363.599 297.238 341.195 302.034 334.793 314.025C327.858 326.815 339.061 333.21 381.737 340.937C449.218 352.928 467.622 366.518 470.289 406.753C472.423 439.528 452.152 464.842 413.477 477.099C389.472 484.827 338.261 485.36 309.454 478.165C286.783 472.836 262.778 462.177 262.778 457.648C262.778 455.782 267.312 444.325 272.913 432.067C279.848 416.346 283.849 410.217 286.783 411.017C286.93 411.072 287.11 411.139 287.323 411.219C290.199 412.294 298.875 415.537 307.321 419.011C355.864 439.528 409.476 433.666 403.074 408.885C400.941 400.625 392.939 397.694 355.598 391.299C316.656 384.904 300.653 379.574 287.583 368.916C274.247 357.991 268.112 343.069 268.112 322.019Z" fill="url(#paint0_linear_733_5042)"/>
</g>
<defs>
<linearGradient id="paint0_linear_733_5042" x1="0" y1="366" x2="732" y2="366" gradientUnits="userSpaceOnUse">
<stop stop-color="#8246CE"/>
<stop offset="0.505102" stop-color="#BA02C9"/>
<stop offset="1" stop-color="#EB45AA"/>
</linearGradient>
</defs>
</svg>
