<svg width="27" height="27" viewBox="0 0 27 27" fill="none" xmlns="http://www.w3.org/2000/svg">
<path d="M26.5 8.5V13.5C26.5 13.6313 26.4741 13.7614 26.4239 13.8827C26.3736 14.004 26.3 14.1143 26.2071 14.2071C26.1143 14.3 26.004 14.3736 25.8827 14.4239C25.7614 14.4741 25.6313 14.5 25.5 14.5C23.4111 14.5046 21.3522 14.0024 19.4999 13.0366L19.5 17.5C19.4997 19.3072 18.984 21.0768 18.0133 22.6012C17.0426 24.1256 15.6573 25.3415 14.0198 26.1062C12.3824 26.8709 10.5608 27.1527 8.7688 26.9185C6.97684 26.6842 5.28886 25.9438 3.90295 24.7839C2.51705 23.6241 1.49073 22.093 0.944435 20.3703C0.398143 18.6476 0.354546 16.8049 0.818761 15.0583C1.28298 13.3118 2.23574 11.7338 3.56525 10.5097C4.89475 9.28564 6.54582 8.46616 8.32471 8.14746C8.46861 8.12183 8.61638 8.12806 8.75761 8.16571C8.89885 8.20335 9.03011 8.27151 9.14216 8.36537C9.25421 8.45923 9.34432 8.57651 9.40615 8.70896C9.46797 8.8414 9.50001 8.9858 9.5 9.13196L9.49994 14.3369C9.49995 14.526 9.44632 14.7112 9.34527 14.8711C9.24423 15.031 9.09991 15.159 8.92908 15.2401C8.52468 15.4317 8.17912 15.7283 7.92845 16.099C7.67778 16.4697 7.53118 16.9009 7.50395 17.3475C7.47673 17.7942 7.56987 18.24 7.77367 18.6384C7.97746 19.0368 8.28444 19.3731 8.66257 19.6125C9.04069 19.8518 9.47611 19.9852 9.92339 19.9988C10.3707 20.0125 10.8134 19.9058 11.2054 19.6901C11.5975 19.4743 11.9244 19.1572 12.1521 18.772C12.3798 18.3868 12.4999 17.9475 12.5 17.5V1.5C12.5 1.36868 12.5259 1.23864 12.5761 1.11731C12.6264 0.995985 12.7 0.885744 12.7929 0.792885C12.8857 0.700025 12.996 0.626366 13.1173 0.576113C13.2386 0.525859 13.3687 0.499996 13.5 0.5H18.5C18.6313 0.499996 18.7614 0.525859 18.8827 0.576113C19.004 0.626366 19.1143 0.700025 19.2071 0.792885C19.3 0.885744 19.3736 0.995985 19.4239 1.11731C19.4741 1.23864 19.5 1.36868 19.5 1.5C19.5018 3.09075 20.1345 4.61583 21.2593 5.74065C22.3842 6.86548 23.9093 7.4982 25.5 7.5C25.6313 7.5 25.7614 7.52586 25.8827 7.57611C26.004 7.62637 26.1143 7.70003 26.2071 7.79288C26.3 7.88574 26.3736 7.99599 26.4239 8.11731C26.4741 8.23864 26.5 8.36868 26.5 8.5Z" fill="#FADBFD"/>
</svg>
