<svg width="21" height="21" viewBox="0 0 21 21" fill="none" xmlns="http://www.w3.org/2000/svg">
<path d="M20 1.5L13.4999 19.5C13.4561 19.5957 13.3856 19.6769 13.297 19.7338C13.2084 19.7906 13.1053 19.8209 12.9999 19.8209C12.8946 19.8209 12.7915 19.7906 12.7029 19.7338C12.6143 19.6769 12.5438 19.5957 12.4999 19.5L8.99995 12.5L1.99995 9C1.90421 8.95613 1.82307 8.88569 1.76619 8.79705C1.70931 8.70842 1.67908 8.60532 1.67908 8.5C1.67908 8.39469 1.70931 8.29158 1.76619 8.20295C1.82307 8.11432 1.90421 8.04388 1.99995 8L20 1.5Z" stroke="#BA02CA" stroke-width="1.5" stroke-linecap="round" stroke-linejoin="round"/>
</svg>
