<svg width="28" height="24" viewBox="0 0 28 24" fill="none" xmlns="http://www.w3.org/2000/svg">
<path d="M27.7072 4.70726L23.9367 8.47783C23.1838 17.2129 15.8173 24.0002 7.00001 24.0002C5.18445 24.0002 3.68824 23.7123 2.5528 23.1446C1.63648 22.6865 1.26111 22.1947 1.16797 22.0549C1.08441 21.9295 1.03025 21.7869 1.00953 21.6377C0.988804 21.4885 1.00206 21.3366 1.0483 21.1932C1.09453 21.0498 1.17257 20.9188 1.27656 20.8098C1.38055 20.7008 1.50783 20.6167 1.64887 20.5638C1.68104 20.5517 4.62989 19.4191 6.53577 17.2627C5.35031 16.4186 4.30695 15.3909 3.44495 14.2184C1.73145 11.8929 -0.0807985 7.85448 1.01612 1.82127C1.04877 1.64172 1.12993 1.47453 1.2508 1.33781C1.37168 1.20109 1.52766 1.10005 1.70186 1.04564C1.87605 0.991226 2.06182 0.985521 2.23902 1.02914C2.41623 1.07275 2.57812 1.16403 2.70716 1.29307C2.75123 1.33702 6.91242 5.43944 11.9993 6.76458L12 5.99968C12.0108 4.3986 12.6568 2.8673 13.7962 1.74238C14.9356 0.617454 16.475 -0.0090404 18.0761 0.000597866C19.1162 0.015002 20.1348 0.298937 21.0324 0.824669C21.9299 1.3504 22.6758 2.09995 23.1971 3.00011L27 3.00017C27.1978 3.00017 27.3911 3.05882 27.5556 3.16869C27.72 3.27857 27.8482 3.43475 27.9239 3.61747C27.9996 3.80019 28.0194 4.00126 27.9808 4.19524C27.9422 4.38922 27.847 4.5674 27.7072 4.70726Z" fill="#FADBFD"/>
</svg>
