<svg width="15" height="19" viewBox="0 0 15 19" fill="none" xmlns="http://www.w3.org/2000/svg">
<path fill-rule="evenodd" clip-rule="evenodd" d="M3.49496 6.5165C1.46296 8.7155 1.50596 12.2015 3.62396 14.3605C4.65796 15.4175 6.03196 16.0005 7.49596 16.0015H7.50096C8.96796 16.0015 10.347 15.4185 11.386 14.3605C13.542 12.1625 13.538 8.5875 11.377 6.3925L8.39096 3.3415C8.08896 5.8235 7.15796 8.0015 5.49996 8.0015C4.99196 8.0015 4.16396 7.7755 3.49496 6.5165ZM7.50096 18.0015H7.49396C5.48796 17.9995 3.60596 17.2045 2.19496 15.7595C-0.719036 12.7895 -0.723036 7.9565 2.18596 4.9915L3.16896 3.9975C3.42296 3.7435 3.79196 3.6455 4.14096 3.7365C4.48796 3.8305 4.75796 4.1035 4.84796 4.4515C5.07796 5.3405 5.35196 5.7775 5.50296 5.9435C5.85796 5.5695 6.49996 4.0585 6.49996 1.5015C6.49996 1.3545 6.49996 1.2155 6.49196 1.0765C6.47296 0.781501 6.58596 0.492501 6.79996 0.288501C7.19696 -0.0884987 7.83296 -0.0884987 8.21396 0.303501L12.804 4.9925C15.724 7.9565 15.729 12.7895 12.814 15.7605C11.395 17.2065 9.50896 18.0015 7.50096 18.0015Z" fill="#BA02CA"/>
</svg>
