<svg width="32" height="33" viewBox="0 0 32 33" fill="none" xmlns="http://www.w3.org/2000/svg">
<path d="M12.0736 22.6224C11.822 22.5385 11.5473 22.5581 11.3101 22.6767C11.0729 22.7953 10.8925 23.0033 10.8086 23.2549C9.9895 25.7122 7.32178 26.4733 5.7915 26.7086C6.02685 25.1776 6.78796 22.5104 9.24524 21.6914C9.3699 21.6499 9.48517 21.5843 9.58445 21.4982C9.68374 21.4122 9.7651 21.3074 9.82389 21.1899C9.88268 21.0724 9.91773 20.9445 9.92706 20.8135C9.93639 20.6824 9.9198 20.5508 9.87825 20.4262C9.8367 20.3015 9.771 20.1863 9.6849 20.0871C9.5988 19.9879 9.49399 19.9066 9.37645 19.8478C9.25892 19.7891 9.13098 19.7542 8.99992 19.7449C8.86887 19.7357 8.73728 19.7523 8.61267 19.794C6.56762 20.4757 5.0653 22.1003 4.26794 24.4923C3.9132 25.5652 3.71724 26.6842 3.68628 27.8137C3.68629 28.079 3.79165 28.3333 3.97918 28.5208C4.16672 28.7084 4.42106 28.8137 4.68628 28.8137C5.81585 28.7828 6.93482 28.5868 8.00769 28.2321C10.3997 27.4348 12.0243 25.9324 12.7061 23.8873C12.7899 23.6357 12.7704 23.3611 12.6518 23.1239C12.5332 22.8867 12.3252 22.7063 12.0736 22.6224Z" fill="white"/>
<path d="M28.4515 5.72745C28.39 5.30395 28.1933 4.91168 27.8907 4.6091C27.5881 4.30651 27.1958 4.10983 26.7723 4.04837C25.3616 3.83786 21.6947 3.73422 18.1212 7.30752L16.9999 8.42886H9.34314C9.08038 8.42817 8.8201 8.47958 8.57734 8.58012C8.33457 8.68066 8.11416 8.82834 7.92883 9.01461L3.88611 13.0574C3.63016 13.3134 3.44848 13.634 3.36045 13.9852C3.27242 14.3363 3.28134 14.7047 3.38625 15.0512C3.49116 15.3976 3.68813 15.7091 3.95617 15.9524C4.2242 16.1957 4.55324 16.3617 4.9082 16.4327L9.85007 17.4211L15.0788 22.6498L16.0671 27.5917C16.138 27.9468 16.304 28.2759 16.5473 28.544C16.7906 28.8121 17.1022 29.0092 17.4487 29.1141C17.7952 29.219 18.1637 29.2278 18.5149 29.1397C18.866 29.0516 19.1867 28.8698 19.4426 28.6137L23.4854 24.5709C23.6716 24.3856 23.8193 24.1652 23.9198 23.9225C24.0204 23.6798 24.0718 23.4195 24.071 23.1568V15.4999L25.1924 14.3786C28.7659 10.8051 28.6621 7.13821 28.4515 5.72745ZM9.34314 10.4289H14.9999L10.0144 15.4143L5.30042 14.4716L9.34314 10.4289ZM22.071 23.1568L18.0283 27.1995L17.0855 22.4855L22.071 17.5L22.071 23.1568Z" fill="white"/>
</svg>
